<svg id="Phone_big_icon" data-name="Phone big icon" xmlns="http://www.w3.org/2000/svg" width="38.974" height="38.971" viewBox="0 0 38.974 38.971">
  <g id="_003---Call" data-name="003---Call" transform="translate(0)">
    <path id="Shape" d="M17.136,22.853a15.728,15.728,0,0,1-4.749-8.93,1.336,1.336,0,0,1,.384-1.118L15.781,9.8a1.344,1.344,0,0,0,.189-1.663L11.178.691A1.344,1.344,0,0,0,9.437.2L1.743,3.825A1.336,1.336,0,0,0,1,5.16c.4,3.83,2.073,13.245,11.325,22.5s18.666,10.922,22.5,11.325a1.336,1.336,0,0,0,1.335-.739l3.624-7.694a1.344,1.344,0,0,0-.487-1.738L31.856,24.02a1.344,1.344,0,0,0-1.663.188l-3.009,3.01a1.336,1.336,0,0,1-1.118.384A15.728,15.728,0,0,1,17.136,22.853Z" transform="translate(-0.997 -0.019)" fill="#d1b37f"/>
    <path id="Shape-2" data-name="Shape" d="M40.766,24.11a1.344,1.344,0,0,1-1.344-1.344A10.09,10.09,0,0,0,29.344,12.688a1.344,1.344,0,0,1,0-2.688A12.781,12.781,0,0,1,42.11,22.766,1.344,1.344,0,0,1,40.766,24.11Z" transform="translate(-9.856 -3.281)" fill="#d1b37f"/>
    <path id="Shape-3" data-name="Shape" d="M47.486,20.83a1.344,1.344,0,0,1-1.344-1.344,16.817,16.817,0,0,0-16.8-16.8,1.344,1.344,0,0,1,0-2.688A19.507,19.507,0,0,1,48.83,19.486a1.344,1.344,0,0,1-1.344,1.344Z" transform="translate(-9.856)" fill="#d1b37f"/>
  </g>
</svg>
