<svg id="Location" xmlns="http://www.w3.org/2000/svg" width="88.794" height="88.794" viewBox="0 0 88.794 88.794">
  <path id="Trazado_1537" data-name="Trazado 1537" d="M0,0H88.794V88.794H0Z" fill="none"/>
  <path id="Trazado_1538" data-name="Trazado 1538" d="M30.9,2A25.879,25.879,0,0,0,5,27.9C5,47.322,30.9,76,30.9,76S56.8,47.322,56.8,27.9A25.879,25.879,0,0,0,30.9,2ZM12.4,27.9a18.5,18.5,0,0,1,37,0c0,10.655-10.655,26.6-18.5,36.554C23.2,54.574,12.4,38.443,12.4,27.9Z" transform="translate(13.499 5.4)"/>
  <ellipse id="Elipse_62" data-name="Elipse 62" cx="9.249" cy="9.249" rx="9.249" ry="9.249" transform="translate(35.148 24.048)"/>
</svg>
