<svg xmlns="http://www.w3.org/2000/svg" width="26.634" height="26.632" viewBox="0 0 26.634 26.632">
  <g id="Phone_Icon" data-name="Phone Icon" transform="translate(0)">
    <g id="_003---Call" data-name="003---Call" transform="translate(0)">
      <path id="Shape" d="M12.026,15.637a10.749,10.749,0,0,1-3.246-6.1.913.913,0,0,1,.262-.764L11.1,6.714a.918.918,0,0,0,.129-1.136L7.954.491A.918.918,0,0,0,6.765.157L1.506,2.633A.913.913,0,0,0,1,3.545C1.277,6.163,2.418,12.6,8.741,18.92S21.5,26.384,24.116,26.66a.913.913,0,0,0,.912-.505L27.5,20.9a.918.918,0,0,0-.333-1.188l-5.086-3.274a.918.918,0,0,0-1.136.129L18.893,18.62a.913.913,0,0,1-.764.262A10.749,10.749,0,0,1,12.026,15.637Z" transform="translate(-0.997 -0.032)" fill="#d1b37f"/>
      <path id="Shape-2" data-name="Shape" d="M36.725,19.643a.918.918,0,0,1-.918-.918,6.9,6.9,0,0,0-6.888-6.888.918.918,0,0,1,0-1.837,8.734,8.734,0,0,1,8.725,8.725A.918.918,0,0,1,36.725,19.643Z" transform="translate(-15.6 -5.408)" fill="#d1b37f"/>
      <path id="Shape-3" data-name="Shape" d="M41.316,14.235a.918.918,0,0,1-.918-.918,11.492,11.492,0,0,0-11.48-11.48.918.918,0,0,1,0-1.837A13.331,13.331,0,0,1,42.235,13.316a.918.918,0,0,1-.918.918Z" transform="translate(-15.6)" fill="#d1b37f"/>
    </g>
  </g>
</svg>
