<svg id="Close_Icon" data-name="Close Icon" xmlns="http://www.w3.org/2000/svg" width="33.721" height="33.721" viewBox="0 0 33.721 33.721">
  <g id="Grupo_12871" data-name="Grupo 12871">
    <path id="Trazado_34120" data-name="Trazado 34120" d="M16.86,0a16.86,16.86,0,1,0,16.86,16.86A16.88,16.88,0,0,0,16.86,0ZM23.68,21.693a.7.7,0,0,1,0,.994l-.993.993a.7.7,0,0,1-.994,0L16.86,18.847,12.028,23.68a.7.7,0,0,1-.994,0l-.993-.993a.7.7,0,0,1,0-.994l4.832-4.833-4.832-4.832a.7.7,0,0,1,0-.994l.993-.993a.7.7,0,0,1,.994,0l4.832,4.832,4.832-4.832a.7.7,0,0,1,.994,0l.993.993a.7.7,0,0,1,0,.994L18.847,16.86Z" fill="#5d5d5d"/>
  </g>
</svg>
