<svg id="Email_Icon" data-name="Email Icon" xmlns="http://www.w3.org/2000/svg" width="31.273" height="26.021" viewBox="0 0 31.273 26.021">
  <g id="if_packet_622401">
    <path id="Trazado_6" data-name="Trazado 6" d="M31.273,3.055A3.055,3.055,0,0,0,28.218,0H3.055A3.055,3.055,0,0,0,0,3.055V22.966a3.055,3.055,0,0,0,3.055,3.055H28.218a3.055,3.055,0,0,0,3.055-3.055Zm-28.2-.614H28.242a.6.6,0,0,1,.608.606v.027L16.088,15.837a.61.61,0,0,1-.863,0L2.46,3.072V3.047A.607.607,0,0,1,3.071,2.441ZM28.242,23.58H3.071a.616.616,0,0,1-.611-.616V6.528L13.5,17.565a3.053,3.053,0,0,0,4.319,0L28.851,6.529V22.964A.613.613,0,0,1,28.242,23.58Z" transform="translate(0 0)" fill="#525252"/>
  </g>
</svg>
