<svg id="Password_Icon" data-name="Password Icon" xmlns="http://www.w3.org/2000/svg" width="29.542" height="40.029" viewBox="0 0 29.542 40.029">
  <g id="if_lock_622405">
    <g id="Grupo_3" data-name="Grupo 3">
      <path id="Trazado_4" data-name="Trazado 4" d="M28.008,16.933H25.515V10.995A10.745,10.745,0,1,0,4.026,11v5.931H1.561A1.547,1.547,0,0,0,0,18.465V36.406a3.882,3.882,0,0,0,3.881,3.865H25.688a3.858,3.858,0,0,0,3.853-3.865V18.465A1.523,1.523,0,0,0,28.008,16.933ZM7.116,11a7.655,7.655,0,1,1,15.309-.007v5.938H7.116Zm19.335,25.4a.767.767,0,0,1-.763.775H3.881a.791.791,0,0,1-.791-.775V20.023H26.452Z" transform="translate(0 -0.242)" fill="#525252"/>
      <path id="Trazado_5" data-name="Trazado 5" d="M567.049,1051.2a2.05,2.05,0,0,0,2.049-2.051v-7.385a2.049,2.049,0,1,0-4.1,0v7.385A2.05,2.05,0,0,0,567.049,1051.2Z" transform="translate(-552.278 -1017.571)" fill="#525252"/>
    </g>
  </g>
</svg>
