<svg xmlns="http://www.w3.org/2000/svg" width="33.009" height="37.35" viewBox="0 0 33.009 37.35">
  <g id="User_Icon" data-name="User Icon" transform="translate(0.75 0.75)">
    <g id="Grupo_9884" data-name="Grupo 9884" transform="translate(6.302)">
      <g id="Grupo_9883" data-name="Grupo 9883">
        <path id="Trazado_15996" data-name="Trazado 15996" d="M130.453,0a9.453,9.453,0,1,0,9.453,9.453A9.463,9.463,0,0,0,130.453,0Z" transform="translate(-121)" fill="none" stroke="#525252" stroke-width="1.5"/>
      </g>
    </g>
    <g id="Grupo_9886" data-name="Grupo 9886" transform="translate(0 21.006)">
      <g id="Grupo_9885" data-name="Grupo 9885">
        <path id="Trazado_15997" data-name="Trazado 15997" d="M58.515,304.075A13.475,13.475,0,0,0,48.855,300h-4.2a13.475,13.475,0,0,0-9.66,4.075A13.776,13.776,0,0,0,31,313.794a1.05,1.05,0,0,0,1.05,1.05H61.459a1.05,1.05,0,0,0,1.05-1.05A13.776,13.776,0,0,0,58.515,304.075Z" transform="translate(-31 -300)" fill="none" stroke="#525252" stroke-width="1.5"/>
      </g>
    </g>
  </g>
</svg>
