<svg id="Email_Icon" data-name="Email Icon" xmlns="http://www.w3.org/2000/svg" width="24.155" height="20.098" viewBox="0 0 24.155 20.098">
  <g id="if_packet_622401">
    <path id="Trazado_6" data-name="Trazado 6" d="M24.155,2.359A2.359,2.359,0,0,0,21.8,0H2.359A2.359,2.359,0,0,0,0,2.359V17.739A2.359,2.359,0,0,0,2.359,20.1H21.8a2.359,2.359,0,0,0,2.359-2.359ZM2.372,1.886H21.814a.467.467,0,0,1,.47.468v.02l-9.857,9.859a.471.471,0,0,1-.667,0L1.9,2.372V2.353A.469.469,0,0,1,2.372,1.886ZM21.814,18.213H2.372a.476.476,0,0,1-.472-.476V5.042l8.525,8.525a2.358,2.358,0,0,0,3.336,0l8.523-8.524V17.737A.474.474,0,0,1,21.814,18.213Z" transform="translate(0 0)" fill="#525252"/>
  </g>
</svg>
