<svg id="Password_Icon" data-name="Password Icon" xmlns="http://www.w3.org/2000/svg" width="22.817" height="30.918" viewBox="0 0 22.817 30.918">
  <g id="if_lock_622405">
    <g id="Grupo_3" data-name="Grupo 3">
      <path id="Trazado_4" data-name="Trazado 4" d="M21.633,13.134H19.708V8.547a8.3,8.3,0,1,0-16.6.005v4.581h-1.9A1.2,1.2,0,0,0,0,14.317V28.175A3,3,0,0,0,3,31.16H19.841a2.98,2.98,0,0,0,2.976-2.985V14.317A1.177,1.177,0,0,0,21.633,13.134ZM5.5,8.553a5.912,5.912,0,1,1,11.825-.005v4.586H5.5ZM20.431,28.175a.593.593,0,0,1-.59.6H3a.611.611,0,0,1-.611-.6V15.52H20.431Z" transform="translate(0 -0.242)" fill="#525252"/>
      <path id="Trazado_5" data-name="Trazado 5" d="M566.582,1048.584a1.583,1.583,0,0,0,1.583-1.584v-5.7a1.583,1.583,0,1,0-3.165,0v5.7A1.583,1.583,0,0,0,566.582,1048.584Z" transform="translate(-555.174 -1022.611)" fill="#525252"/>
    </g>
  </g>
</svg>
