<svg xmlns="http://www.w3.org/2000/svg" width="25.837" height="29.19" viewBox="0 0 25.837 29.19">
  <g id="User_Icon" data-name="User Icon" transform="translate(0.75 0.75)">
    <g id="Grupo_9884" data-name="Grupo 9884" transform="translate(4.867)">
      <g id="Grupo_9883" data-name="Grupo 9883">
        <path id="Trazado_15996" data-name="Trazado 15996" d="M128.3,0a7.3,7.3,0,1,0,7.3,7.3A7.309,7.309,0,0,0,128.3,0Z" transform="translate(-121)" fill="none" stroke="#525252" stroke-width="1.5"/>
      </g>
    </g>
    <g id="Usie" transform="translate(0 16.225)">
      <g id="Grupo_9885" data-name="Grupo 9885">
        <path id="Trazado_15997" data-name="Trazado 15997" d="M52.252,303.147A10.408,10.408,0,0,0,44.791,300H41.546a10.408,10.408,0,0,0-7.461,3.147A10.64,10.64,0,0,0,31,310.654a.811.811,0,0,0,.811.811H54.526a.811.811,0,0,0,.811-.811A10.64,10.64,0,0,0,52.252,303.147Z" transform="translate(-31 -300)" fill="none" stroke="#525252" stroke-width="1.5"/>
      </g>
    </g>
  </g>
</svg>
