<svg id="Business_Tax_Preparation_Blue" data-name="Business Tax Preparation Blue" xmlns="http://www.w3.org/2000/svg" xmlns:xlink="http://www.w3.org/1999/xlink" width="285" height="209" viewBox="0 0 285 209">
  <defs>
    <filter id="Business_tax_preparation" x="63.218" y="111.483" width="156" height="68" filterUnits="userSpaceOnUse">
      <feOffset dy="3" input="SourceAlpha"/>
      <feGaussianBlur stdDeviation="3" result="blur"/>
      <feFlood flood-opacity="0.161"/>
      <feComposite operator="in" in2="blur"/>
      <feComposite in="SourceGraphic"/>
    </filter>
  </defs>
  <rect id="Rectángulo_167" data-name="Rectángulo 167" width="285" height="209" rx="24" fill="#225eac" opacity="0.78"/>
  <g transform="matrix(1, 0, 0, 1, 0, 0)" filter="url(#Business_tax_preparation)">
    <text id="Business_tax_preparation-2" data-name="Business tax 
preparation" transform="translate(141.22 137.48)" fill="#fff" font-size="21" font-family="Montserrat-SemiBold, Montserrat" font-weight="600"><tspan x="-68.576" y="0">Business tax </tspan><tspan x="-63.021" y="25">preparation</tspan></text>
  </g>
  <g id="team-leader" transform="translate(115.777 39.66)">
    <path id="Trazado_1578" data-name="Trazado 1578" d="M43.526,66.251A6.263,6.263,0,1,0,37.263,72.5,6.264,6.264,0,0,0,43.526,66.251Zm-6.263,3.125a3.125,3.125,0,1,1,3.132-3.125A3.132,3.132,0,0,1,37.263,69.376Z" transform="translate(-27.764 -53.749)" fill="#fff"/>
    <path id="Trazado_1579" data-name="Trazado 1579" d="M373.526,66.251a6.263,6.263,0,1,0-6.263,6.251A6.264,6.264,0,0,0,373.526,66.251Zm-6.263,3.125a3.125,3.125,0,1,1,3.132-3.125A3.132,3.132,0,0,1,367.263,69.376Z" transform="translate(-323.316 -53.749)" fill="#fff"/>
    <path id="Trazado_1580" data-name="Trazado 1580" d="M43.947,153.125a9.386,9.386,0,0,0-7.209,3.371,10.968,10.968,0,0,0-20.03,0A9.466,9.466,0,0,0,0,162.5v7.813a1.564,1.564,0,0,0,1.566,1.563H3.278L4.705,186.3a1.565,1.565,0,0,0,1.558,1.409h6.368a1.565,1.565,0,0,0,1.558-1.409l1.427-14.426h5.229l1.187,14.4a1.564,1.564,0,0,0,1.56,1.435h6.263a1.564,1.564,0,0,0,1.56-1.435l1.187-14.4H37.83L39.257,186.3a1.565,1.565,0,0,0,1.558,1.409h6.368a1.565,1.565,0,0,0,1.558-1.409l1.426-14.426H51.88a1.564,1.564,0,0,0,1.566-1.563V162.5A9.47,9.47,0,0,0,43.947,153.125ZM14.2,168.752a1.565,1.565,0,0,0-1.558,1.409l-1.427,14.426H7.682L6.256,170.161A1.565,1.565,0,0,0,4.7,168.752H3.132V162.5a6.316,6.316,0,0,1,12.631,0v6.251Zm16.963,0a1.564,1.564,0,0,0-1.56,1.435l-1.187,14.4H25.034l-1.187-14.4a1.565,1.565,0,0,0-1.561-1.435H18.894v-7.813a7.831,7.831,0,0,1,6.263-7.656v7.656a1.566,1.566,0,0,0,3.132,0v-7.656a7.83,7.83,0,0,1,6.263,7.656v7.813Zm19.155,0H48.749a1.565,1.565,0,0,0-1.558,1.409l-1.426,14.426h-3.53l-1.426-14.426a1.565,1.565,0,0,0-1.558-1.409H37.684V162.5a6.316,6.316,0,0,1,12.631,0Z" transform="translate(0 -134.373)" fill="#fff"/>
    <path id="Trazado_1581" data-name="Trazado 1581" d="M196.658,7.813a7.829,7.829,0,1,0-7.829,7.813A7.83,7.83,0,0,0,196.658,7.813ZM188.829,12.5a4.688,4.688,0,1,1,4.7-4.688A4.7,4.7,0,0,1,188.829,12.5Z" transform="translate(-162.106)" fill="#fff"/>
  </g>
</svg>
