<svg id="Individual_Tax_Preparation_Blue" data-name="Individual Tax Preparation Blue" xmlns="http://www.w3.org/2000/svg" xmlns:xlink="http://www.w3.org/1999/xlink" width="285" height="209" viewBox="0 0 285 209">
  <defs>
    <filter id="Individual_tax_preparation" x="56.707" y="112.197" width="170" height="68" filterUnits="userSpaceOnUse">
      <feOffset dy="3" input="SourceAlpha"/>
      <feGaussianBlur stdDeviation="3" result="blur"/>
      <feFlood flood-opacity="0.161"/>
      <feComposite operator="in" in2="blur"/>
      <feComposite in="SourceGraphic"/>
    </filter>
  </defs>
  <rect id="Rectángulo_167" data-name="Rectángulo 167" width="285" height="209" rx="24" fill="#225eac" opacity="0.78"/>
  <g transform="matrix(1, 0, 0, 1, 0, 0)" filter="url(#Individual_tax_preparation)">
    <text id="Individual_tax_preparation-2" data-name="Individual tax 
preparation" transform="translate(141.71 138.2)" fill="#fff" font-size="21" font-family="Montserrat-SemiBold, Montserrat" font-weight="600"><tspan x="-75.338" y="0">Individual tax </tspan><tspan x="-63.021" y="25">preparation</tspan></text>
  </g>
  <g id="Grupo_1790" data-name="Grupo 1790" transform="translate(118.458 38.945)">
    <g id="Grupo_1763" data-name="Grupo 1763">
      <path id="Trazado_1541" data-name="Trazado 1541" d="M108.332,336.18a1.137,1.137,0,0,0-1.557.395l-6.959,11.674a1.132,1.132,0,0,0,.4,1.554,1.148,1.148,0,0,0,1.557-.395l6.959-11.674A1.132,1.132,0,0,0,108.332,336.18Z" transform="translate(-88.337 -297.974)" fill="#fff"/>
      <path id="Trazado_1542" data-name="Trazado 1542" d="M84.207,334.872a3.494,3.494,0,0,0-3.3-3.649,3.411,3.411,0,0,0-3.2,3.649,3.494,3.494,0,0,0,3.305,3.649A3.411,3.411,0,0,0,84.207,334.872Zm-4.236,0c0-.775.409-1.382.931-1.382.56,0,1.033.633,1.033,1.382,0,.775-.409,1.382-.931,1.382C80.445,336.254,79.972,335.621,79.972,334.872Z" transform="translate(-68.875 -293.721)" fill="#fff"/>
      <path id="Trazado_1543" data-name="Trazado 1543" d="M146,405.285a3.321,3.321,0,1,0,3.3-3.649,3.494,3.494,0,0,0-3.3,3.649Zm4.338,0c0,.749-.473,1.382-1.033,1.382s-1.033-.633-1.033-1.382.473-1.382,1.033-1.382S150.335,404.536,150.335,405.285Z" transform="translate(-129.414 -356.152)" fill="#fff"/>
      <path id="Trazado_1544" data-name="Trazado 1544" d="M57.745,10.384a1.137,1.137,0,0,0-.933-.243L44.419,12.423H33.545a1.135,1.135,0,0,0-1.136,1.134v.581h-.041a5.189,5.189,0,0,1-4.082-1.967l-.841-1.057A7.56,7.56,0,0,0,23.073,8.45l2.155-6.583A1.145,1.145,0,0,0,24.149.381H6.952a1.145,1.145,0,0,0-1.074,1.5L9.2,11.517H6.768A3.751,3.751,0,0,0,3.819,17.6a3.749,3.749,0,0,0,.8,6.324A3.746,3.746,0,0,0,5.8,28.867,3.728,3.728,0,0,0,5.129,31a3.787,3.787,0,0,0,2.586,3.567L3.2,39.2a11.266,11.266,0,0,0,8.1,19.129H19.83a11.266,11.266,0,0,0,8.1-19.129L23.47,34.63a7.5,7.5,0,0,0,3.514-1.674l.859-.735a5.223,5.223,0,0,1,3.393-1.253H32.41v.891a1.135,1.135,0,0,0,1.136,1.134H57.018a1.135,1.135,0,0,0,1.136-1.134V26.848a1.136,1.136,0,0,0-2.272,0v3.878H45.659V14.5l10.223-1.883v4.276a1.136,1.136,0,0,0,2.272,0V11.255a1.133,1.133,0,0,0-.409-.871ZM22.583,2.648l-2.1,6.423v0l-.8,2.444H11.6L8.544,2.648Zm6.269,44.413a9.023,9.023,0,0,1-9.022,9H11.294A9,9,0,0,1,4.826,40.784L10.7,34.755h9.722L26.3,40.784A8.948,8.948,0,0,1,28.852,47.061ZM31.236,28.7a7.5,7.5,0,0,0-4.872,1.8l-.859.735a5.223,5.223,0,0,1-3.393,1.253H8.891a1.488,1.488,0,1,1,0-2.976,1.134,1.134,0,1,0,0-2.267H7.9a1.488,1.488,0,1,1,0-2.976A1.134,1.134,0,1,0,7.9,22H6.19a1.488,1.488,0,1,1,0-2.976h.577a1.134,1.134,0,1,0,0-2.267,1.488,1.488,0,1,1,0-2.976H20.5A1.136,1.136,0,0,0,21.583,13l.78-2.381a5.276,5.276,0,0,1,3.3,1.9l.841,1.057a7.451,7.451,0,0,0,5.861,2.824h.041V28.7Zm3.445,1.134V14.69h8.706V30.726H34.681Z" transform="translate(0 -0.381)" fill="#fff"/>
      <path id="Trazado_1545" data-name="Trazado 1545" d="M493.783,180.109a1.133,1.133,0,1,0,.438,1.324A1.149,1.149,0,0,0,493.783,180.109Z" transform="translate(-436.135 -159.569)" fill="#fff"/>
    </g>
  </g>
</svg>
