<svg id="Menu_icon" data-name="Menu icon" xmlns="http://www.w3.org/2000/svg" width="42.741" height="30.052" viewBox="0 0 42.741 30.052">
  <g id="Grupo_112" data-name="Grupo 112" transform="translate(0 13.357)">
    <g id="Grupo_111" data-name="Grupo 111">
      <path id="Trazado_142" data-name="Trazado 142" d="M41.072,236H1.67a1.67,1.67,0,1,0,0,3.339h39.4a1.67,1.67,0,1,0,0-3.339Z" transform="translate(0 -236)" fill="#fff"/>
    </g>
  </g>
  <g id="Grupo_114" data-name="Grupo 114" transform="translate(0 0)">
    <g id="Grupo_113" data-name="Grupo 113">
      <path id="Trazado_143" data-name="Trazado 143" d="M41.072,76H1.67a1.67,1.67,0,0,0,0,3.339h39.4a1.67,1.67,0,0,0,0-3.339Z" transform="translate(0 -76)" fill="#fff"/>
    </g>
  </g>
  <g id="Grupo_116" data-name="Grupo 116" transform="translate(0 26.713)">
    <g id="Grupo_115" data-name="Grupo 115">
      <path id="Trazado_144" data-name="Trazado 144" d="M41.072,396H1.67a1.67,1.67,0,0,0,0,3.339h39.4a1.67,1.67,0,0,0,0-3.339Z" transform="translate(0 -396)" fill="#fff"/>
    </g>
  </g>
</svg>
