<svg id="united-states-of-america" xmlns="http://www.w3.org/2000/svg" width="38.482" height="38.483" viewBox="0 0 38.482 38.483">
  <g id="Grupo_2947" data-name="Grupo 2947" transform="translate(0.079)">
    <rect id="Rectángulo_703" data-name="Rectángulo 703" width="38.311" height="0.001" transform="translate(0.007 21.041)" fill="#c42126"/>
    <rect id="Rectángulo_704" data-name="Rectángulo 704" width="34.318" height="0.001" transform="translate(2.003 10.537)" fill="#c42126"/>
    <rect id="Rectángulo_705" data-name="Rectángulo 705" width="37.046" height="0.001" transform="translate(0.638 14.038)" fill="#c42126"/>
    <path id="Trazado_13392" data-name="Trazado 13392" d="M101.779,431.346h0Z" transform="translate(-93.589 -396.302)" fill="#c42126"/>
    <path id="Trazado_13393" data-name="Trazado 13393" d="M224.114,0c-.378,0-.753.014-1.125.035h2.25C224.867.014,224.492,0,224.114,0Z" transform="translate(-204.952)" fill="#c42126"/>
    <rect id="Rectángulo_706" data-name="Rectángulo 706" width="38.323" height="0.001" transform="translate(0 17.539)" fill="#c42126"/>
  </g>
  <path id="Trazado_13394" data-name="Trazado 13394" d="M290.143,47.025h9.188a19.339,19.339,0,0,0-3.765-3.5h-6.9A18.287,18.287,0,0,1,290.143,47.025Z" transform="translate(-265.215 -39.989)" fill="#e7e7e7"/>
  <path id="Trazado_13395" data-name="Trazado 13395" d="M247.074,3.931h6.9a19.135,19.135,0,0,0-9.985-3.5H243.4C245.141.65,245.943,1.941,247.074,3.931Z" transform="translate(-223.622 -0.395)" fill="#dc3027"/>
  <path id="Trazado_13396" data-name="Trazado 13396" d="M329.875,133.21a19.112,19.112,0,0,0-1.365-3.5H317.94c.214,1.124.383,2.3.508,3.5Z" transform="translate(-292.11 -119.172)" fill="#e7e7e7"/>
  <path id="Trazado_13397" data-name="Trazado 13397" d="M300.758,90.113h11.164a19.252,19.252,0,0,0-2.284-3.5h-9.753A30.9,30.9,0,0,1,300.758,90.113Z" transform="translate(-275.523 -79.575)" fill="#dc3027"/>
  <path id="Trazado_13398" data-name="Trazado 13398" d="M329.178,219.393h11.653c.055-.592.087-1.192.087-1.8,0-.574-.03-1.14-.079-1.7H329.181C329.219,217.057,329.218,218.23,329.178,219.393Z" transform="translate(-302.435 -198.353)" fill="#e7e7e7"/>
  <path id="Trazado_13399" data-name="Trazado 13399" d="M330.71,176.3a19.168,19.168,0,0,0-.638-3.5H318.154c.12,1.146.2,2.319.237,3.5Z" transform="translate(-292.307 -158.763)" fill="#dc3027"/>
  <path id="Trazado_13400" data-name="Trazado 13400" d="M315.465,305.576h10.721a19.09,19.09,0,0,0,1.387-3.5h-11.59C315.856,303.279,315.683,304.453,315.465,305.576Z" transform="translate(-289.836 -277.534)" fill="#e7e7e7"/>
  <path id="Trazado_13401" data-name="Trazado 13401" d="M333.3,262.488a19.121,19.121,0,0,0,.659-3.5H321.944c-.041,1.182-.122,2.355-.245,3.5Z" transform="translate(-295.564 -237.947)" fill="#dc3027"/>
  <path id="Trazado_13402" data-name="Trazado 13402" d="M296,391.761a19.352,19.352,0,0,0,3.82-3.5H290.8a17.877,17.877,0,0,1-1.5,3.5Z" transform="translate(-265.789 -356.718)" fill="#e7e7e7"/>
  <g id="Grupo_2948" data-name="Grupo 2948" transform="translate(18.427 28.042)">
    <path id="Trazado_13403" data-name="Trazado 13403" d="M303.625,348.668h9.367a19.273,19.273,0,0,0,2.315-3.5h-10.8A30.458,30.458,0,0,1,303.625,348.668Z" transform="translate(-297.385 -345.167)" fill="#dc3027"/>
    <path id="Trazado_13404" data-name="Trazado 13404" d="M226.935,473.461l-.117,0Z" transform="translate(-226.818 -463.034)" fill="#dc3027"/>
    <path id="Trazado_13405" data-name="Trazado 13405" d="M236.837,434.8a19.151,19.151,0,0,0,10.972-3.438h-6.964C239.609,433.489,238.794,434.8,236.837,434.8Z" transform="translate(-236.023 -424.357)" fill="#dc3027"/>
  </g>
  <path id="Trazado_13406" data-name="Trazado 13406" d="M228.952,473.523c-.234,0-.466-.005-.7-.014C228.489,473.517,228.721,473.523,228.952,473.523Z" transform="translate(-209.711 -435.04)" fill="#c42126"/>
  <path id="Trazado_13407" data-name="Trazado 13407" d="M73.469,43.525H57.512a19.34,19.34,0,0,0-3.765,3.5h21.2A18.291,18.291,0,0,0,73.469,43.525Z" transform="translate(-49.381 -39.989)" fill="#f3f4f5"/>
  <path id="Trazado_13408" data-name="Trazado 13408" d="M100.092,3.931h15.957c-1.131-1.99-2.57-3.281-4.315-3.5h-1.658A19.133,19.133,0,0,0,100.092,3.931Z" transform="translate(-91.96 -0.395)" fill="#e73625"/>
  <path id="Trazado_13409" data-name="Trazado 13409" d="M8.835,133.21H35.062c-.125-1.2-.294-2.376-.508-3.5H10.2A19.112,19.112,0,0,0,8.835,133.21Z" transform="translate(-8.117 -119.172)" fill="#f3f4f5"/>
  <path id="Trazado_13410" data-name="Trazado 13410" d="M27.921,86.609a19.266,19.266,0,0,0-2.284,3.5H49.991a30.854,30.854,0,0,0-.872-3.5Z" transform="translate(-23.554 -79.573)" fill="#e73625"/>
  <path id="Trazado_13411" data-name="Trazado 13411" d="M0,217.6c0,.606.032,1.207.087,1.8H27.182c.04-1.164.041-2.336,0-3.5H.081C.032,216.457,0,217.024,0,217.6Z" transform="translate(-0.002 -198.356)" fill="#f3f4f5"/>
  <path id="Trazado_13412" data-name="Trazado 13412" d="M.978,176.3h27.1c-.039-1.181-.118-2.354-.237-3.5H1.616A19.14,19.14,0,0,0,.978,176.3Z" transform="translate(-0.899 -158.763)" fill="#e73625"/>
  <path id="Trazado_13413" data-name="Trazado 13413" d="M35.365,302.072H9.175a19.1,19.1,0,0,0,1.387,3.5H34.847C35.065,304.45,35.237,303.277,35.365,302.072Z" transform="translate(-8.43 -277.531)" fill="#f3f4f5"/>
  <path id="Trazado_13414" data-name="Trazado 13414" d="M1.727,262.488h26.19c.122-1.146.2-2.318.245-3.5H1.068A19.145,19.145,0,0,0,1.727,262.488Z" transform="translate(-0.981 -237.947)" fill="#e73625"/>
  <path id="Trazado_13415" data-name="Trazado 13415" d="M58.573,391.761H74.335a17.874,17.874,0,0,0,1.5-3.5H54.753A19.343,19.343,0,0,0,58.573,391.761Z" transform="translate(-50.305 -356.718)" fill="#f3f4f5"/>
  <g id="Grupo_2949" data-name="Grupo 2949" transform="translate(2.133 28.042)">
    <path id="Trazado_13416" data-name="Trazado 13416" d="M26.254,345.166a19.274,19.274,0,0,0,2.315,3.5H49.656a30.518,30.518,0,0,0,.883-3.5Z" transform="translate(-26.254 -345.166)" fill="#e73625"/>
    <path id="Trazado_13417" data-name="Trazado 13417" d="M111.95,434.779l.117,0c.232.008.464.014.7.014,1.957,0,3.552-1.308,4.789-3.438h-15.76A19.14,19.14,0,0,0,111.95,434.779Z" transform="translate(-95.656 -424.357)" fill="#e73625"/>
  </g>
  <path id="Trazado_13418" data-name="Trazado 13418" d="M19.769.123a19.236,19.236,0,0,0-18.761,17.5H19.77V.123Z" transform="translate(-0.926 -0.113)" fill="#283991"/>
  <g id="Grupo_2950" data-name="Grupo 2950" transform="translate(0.647 1.333)">
    <path id="Trazado_13419" data-name="Trazado 13419" d="M33.334,134.187l.293.9h.95l-.768.558.293.9-.768-.558-.768.558.293-.9-.768-.558h.95Z" transform="translate(-30.131 -124.619)" fill="#efefef"/>
    <path id="Trazado_13420" data-name="Trazado 13420" d="M33.334,173.438l.293.9h.95l-.768.558.293.9-.768-.558-.768.558.293-.9-.768-.558h.95Z" transform="translate(-30.131 -160.681)" fill="#efefef"/>
    <path id="Trazado_13421" data-name="Trazado 13421" d="M72.588,75.3l.293.9h.949l-.768.558.293.9-.768-.558-.768.558.293-.9-.768-.558h.95Z" transform="translate(-66.196 -70.512)" fill="#efefef"/>
    <path id="Trazado_13422" data-name="Trazado 13422" d="M72.588,114.554l.293.9h.949l-.768.558.293.9-.768-.558-.768.558.293-.9-.768-.558h.95Z" transform="translate(-66.196 -106.581)" fill="#efefef"/>
    <path id="Trazado_13423" data-name="Trazado 13423" d="M72.588,153.812l.293.9h.949l-.768.557.293.9-.768-.558-.768.558.293-.9-.768-.557h.95Z" transform="translate(-66.196 -142.649)" fill="#efefef"/>
    <path id="Trazado_13424" data-name="Trazado 13424" d="M8.752,165.642l-.293-.9.768-.558H8.278l-.021-.066c-.1.322-.2.649-.285.979l.013-.01Z" transform="translate(-7.971 -152.115)" fill="#efefef"/>
    <path id="Trazado_13425" data-name="Trazado 13425" d="M37.185,97.29l.768-.558.768.558-.293-.9.768-.558h-.95l-.293-.9-.293.9h-.35c-.065.1-.128.2-.191.3l.36.261Z" transform="translate(-34.75 -88.547)" fill="#efefef"/>
    <path id="Trazado_13426" data-name="Trazado 13426" d="M77.955,48.056l.768.558-.293-.9.768-.558h-.548q-.7.522-1.347,1.106l-.116.355Z" transform="translate(-71.563 -44.656)" fill="#efefef"/>
    <path id="Trazado_13427" data-name="Trazado 13427" d="M116.452,27.614l.768-.558.768.558-.293-.9.768-.558h-.949l-.04-.122c-.322.164-.64.335-.951.517l.223.162Z" transform="translate(-107.639 -25.25)" fill="#efefef"/>
    <path id="Trazado_13428" data-name="Trazado 13428" d="M111.847,55.671l.293.9h.949l-.768.558.293.9-.768-.558-.768.558.293-.9-.768-.558h.95Z" transform="translate(-102.266 -52.482)" fill="#efefef"/>
    <path id="Trazado_13429" data-name="Trazado 13429" d="M111.847,94.929l.293.9h.949l-.768.558.293.9-.768-.558-.768.558.293-.9-.768-.558h.95Z" transform="translate(-102.266 -88.55)" fill="#efefef"/>
    <path id="Trazado_13430" data-name="Trazado 13430" d="M111.847,134.187l.293.9h.949l-.768.558.293.9-.768-.558-.768.558.293-.9-.768-.558h.95Z" transform="translate(-102.266 -124.619)" fill="#efefef"/>
    <path id="Trazado_13431" data-name="Trazado 13431" d="M111.847,173.438l.293.9h.949l-.768.558.293.9-.768-.558-.768.558.293-.9-.768-.558h.95Z" transform="translate(-102.266 -160.681)" fill="#efefef"/>
    <path id="Trazado_13432" data-name="Trazado 13432" d="M151.105,36.038l.293.9h.949l-.768.558.293.9-.768-.558-.768.558.293-.9-.768-.558h.95Z" transform="translate(-138.334 -34.444)" fill="#efefef"/>
    <path id="Trazado_13433" data-name="Trazado 13433" d="M151.105,75.3l.293.9h.949l-.768.558.293.9-.768-.558-.768.558.293-.9-.768-.558h.95Z" transform="translate(-138.334 -70.512)" fill="#efefef"/>
    <path id="Trazado_13434" data-name="Trazado 13434" d="M151.105,114.554l.293.9h.949l-.768.558.293.9-.768-.558-.768.558.293-.9-.768-.558h.95Z" transform="translate(-138.334 -106.581)" fill="#efefef"/>
    <path id="Trazado_13435" data-name="Trazado 13435" d="M151.105,153.812l.293.9h.949l-.768.557.293.9-.768-.558-.768.558.293-.9-.768-.557h.95Z" transform="translate(-138.334 -142.649)" fill="#efefef"/>
    <path id="Trazado_13436" data-name="Trazado 13436" d="M190.363,16.413l.293.9h.949l-.768.558.293.9-.768-.558-.768.558.293-.9-.768-.558h.949Z" transform="translate(-174.403 -16.413)" fill="#efefef"/>
    <path id="Trazado_13437" data-name="Trazado 13437" d="M190.363,55.671l.293.9h.949l-.768.558.293.9-.768-.558-.768.558.293-.9-.768-.558h.949Z" transform="translate(-174.403 -52.482)" fill="#efefef"/>
    <path id="Trazado_13438" data-name="Trazado 13438" d="M190.363,94.929l.293.9h.949l-.768.558.293.9-.768-.558-.768.558.293-.9-.768-.558h.949Z" transform="translate(-174.403 -88.55)" fill="#efefef"/>
    <path id="Trazado_13439" data-name="Trazado 13439" d="M190.363,134.187l.293.9h.949l-.768.558.293.9-.768-.558-.768.558.293-.9-.768-.558h.949Z" transform="translate(-174.403 -124.619)" fill="#efefef"/>
    <path id="Trazado_13440" data-name="Trazado 13440" d="M190.363,173.438l.293.9h.949l-.768.558.293.9-.768-.558-.768.558.293-.9-.768-.558h.949Z" transform="translate(-174.403 -160.681)" fill="#efefef"/>
  </g>
</svg>
