<svg xmlns="http://www.w3.org/2000/svg" xmlns:xlink="http://www.w3.org/1999/xlink" width="518" height="284" viewBox="0 0 518 284">
  <defs>
    <filter id="Rect치ngulo_167" x="0" y="0" width="518" height="284" filterUnits="userSpaceOnUse">
      <feOffset dx="6" dy="3" input="SourceAlpha"/>
      <feGaussianBlur stdDeviation="3" result="blur"/>
      <feFlood flood-opacity="0.161"/>
      <feComposite operator="in" in2="blur"/>
      <feComposite in="SourceGraphic"/>
    </filter>
  </defs>
  <g id="Individual_Tax_Preparation_Blanco" data-name="Individual Tax Preparation Blanco" transform="translate(3 6)">
    <g transform="matrix(1, 0, 0, 1, -3, -6)" filter="url(#Rect치ngulo_167)">
      <rect id="Rect치ngulo_167-2" data-name="Rect치ngulo 167" width="500" height="266" rx="24" transform="translate(3 6)" fill="#fff" opacity="0.78"/>
    </g>
    <text id="Individual_tax_preparation" data-name="Individual tax 
preparation" transform="translate(244 191)" fill="#225eac" font-size="30" font-family="Montserrat-SemiBold, Montserrat" font-weight="600"><tspan x="-107.625" y="0">Individual tax </tspan><tspan x="-90.03" y="37">preparation</tspan></text>
    <g id="Grupo_1790" data-name="Grupo 1790" transform="translate(213.471 61.461)">
      <g id="Grupo_1763" data-name="Grupo 1763">
        <path id="Trazado_1541" data-name="Trazado 1541" d="M112.072,336.249a1.625,1.625,0,0,0-2.228.566l-9.959,16.74a1.625,1.625,0,1,0,2.794,1.662l9.959-16.74A1.625,1.625,0,0,0,112.072,336.249Z" transform="translate(-83.457 -281.462)" fill="#225eac"/>
        <path id="Trazado_1542" data-name="Trazado 1542" d="M87.013,336.456a5.006,5.006,0,0,0-4.73-5.233c-2.57,0-4.583,2.3-4.583,5.233a5.006,5.006,0,0,0,4.73,5.233C85,341.688,87.013,339.39,87.013,336.456Zm-6.062,0c0-1.111.585-1.982,1.332-1.982.8,0,1.479.908,1.479,1.982,0,1.111-.585,1.982-1.332,1.982C81.628,338.437,80.951,337.53,80.951,336.456Z" transform="translate(-65.07 -277.445)" fill="#225eac"/>
        <path id="Trazado_1543" data-name="Trazado 1543" d="M146,406.869a4.754,4.754,0,1,0,4.73-5.233,5.006,5.006,0,0,0-4.73,5.233Zm6.208,0c0,1.074-.677,1.982-1.479,1.982s-1.479-.908-1.479-1.982.677-1.982,1.479-1.982S152.205,405.794,152.205,406.869Z" transform="translate(-122.265 -336.412)" fill="#225eac"/>
        <path id="Trazado_1544" data-name="Trazado 1544" d="M82.639,14.725a1.625,1.625,0,0,0-1.335-.349L63.569,17.65H48.007a1.626,1.626,0,0,0-1.625,1.625v.834h-.059a7.421,7.421,0,0,1-5.842-2.82l-1.2-1.515a10.815,10.815,0,0,0-6.256-3.822L36.1,2.511A1.642,1.642,0,0,0,34.56.381H9.949A1.641,1.641,0,0,0,8.412,2.535L13.165,16.35H9.686a5.382,5.382,0,0,0-4.22,8.725,5.382,5.382,0,0,0,1.144,9.069A5.379,5.379,0,0,0,8.295,41.23a5.353,5.353,0,0,0-.955,3.058,5.43,5.43,0,0,0,3.7,5.116L4.576,56.052A16.163,16.163,0,0,0,16.162,83.482H28.379a16.162,16.162,0,0,0,11.587-27.43l-6.378-6.558a10.719,10.719,0,0,0,5.029-2.4l1.229-1.053a7.465,7.465,0,0,1,4.856-1.8h1.68v1.278a1.626,1.626,0,0,0,1.625,1.625H81.6a1.626,1.626,0,0,0,1.625-1.625V38.334a1.625,1.625,0,1,0-3.251,0V43.9H65.343V20.628l14.631-2.7V24.06a1.625,1.625,0,1,0,3.251,0V15.975a1.625,1.625,0,0,0-.586-1.25ZM32.318,3.632,29.31,12.842v0l-1.145,3.5H16.6L12.227,3.632ZM41.29,67.32A12.926,12.926,0,0,1,28.379,80.231H16.162A12.911,12.911,0,0,1,6.906,58.318l8.408-8.645H29.227l8.408,8.645A12.844,12.844,0,0,1,41.29,67.32ZM44.7,40.992a10.718,10.718,0,0,0-6.972,2.58L36.5,44.625a7.466,7.466,0,0,1-4.856,1.8H12.724a2.133,2.133,0,0,1,0-4.267,1.625,1.625,0,0,0,0-3.251H11.309a2.134,2.134,0,0,1,0-4.267,1.625,1.625,0,1,0,0-3.251H8.859a2.134,2.134,0,0,1,0-4.267h.825a1.625,1.625,0,0,0,0-3.251,2.133,2.133,0,0,1,0-4.267H29.343a1.626,1.626,0,0,0,1.545-1.121L32,15.065a7.547,7.547,0,0,1,4.728,2.73l1.2,1.515a10.655,10.655,0,0,0,8.388,4.049h.059V40.992Zm4.931,1.625V20.9H62.092v23H49.633Z" transform="translate(0 -0.381)" fill="#225eac"/>
        <path id="Trazado_1545" data-name="Trazado 1545" d="M494.543,180.19a1.625,1.625,0,1,0,.627,1.9A1.642,1.642,0,0,0,494.543,180.19Z" transform="translate(-412.042 -150.736)" fill="#225eac"/>
      </g>
    </g>
  </g>
</svg>
