<svg id="united-states-of-america" xmlns="http://www.w3.org/2000/svg" width="45.613" height="45.614" viewBox="0 0 45.613 45.614">
  <g id="Grupo_2947" data-name="Grupo 2947" transform="translate(0.094)">
    <rect id="Rectángulo_703" data-name="Rectángulo 703" width="45.41" height="0.001" transform="translate(0.009 24.94)" fill="#c42126"/>
    <rect id="Rectángulo_704" data-name="Rectángulo 704" width="40.678" height="0.001" transform="translate(2.374 12.49)" fill="#c42126"/>
    <rect id="Rectángulo_705" data-name="Rectángulo 705" width="43.911" height="0.001" transform="translate(0.756 16.639)" fill="#c42126"/>
    <path id="Trazado_13392" data-name="Trazado 13392" d="M101.779,431.346h0Z" transform="translate(-92.071 -389.808)" fill="#c42126"/>
    <path id="Trazado_13393" data-name="Trazado 13393" d="M224.323,0c-.448,0-.892.016-1.334.041h2.667C225.215.016,224.771,0,224.323,0Z" transform="translate(-201.61)" fill="#c42126"/>
    <rect id="Rectángulo_706" data-name="Rectángulo 706" width="45.424" height="0.001" transform="translate(0 20.79)" fill="#c42126"/>
  </g>
  <path id="Trazado_13394" data-name="Trazado 13394" d="M290.417,47.674h10.89a22.923,22.923,0,0,0-4.463-4.149h-8.178A21.679,21.679,0,0,1,290.417,47.674Z" transform="translate(-260.87 -39.334)" fill="#e7e7e7"/>
  <path id="Trazado_13395" data-name="Trazado 13395" d="M247.755,4.58h8.178A22.681,22.681,0,0,0,244.1.43h-.7C245.465.69,246.415,2.222,247.755,4.58Z" transform="translate(-219.958 -0.389)" fill="#dc3027"/>
  <path id="Trazado_13396" data-name="Trazado 13396" d="M332.086,133.859a22.655,22.655,0,0,0-1.617-4.149H317.94c.254,1.332.454,2.724.6,4.149Z" transform="translate(-287.324 -117.219)" fill="#e7e7e7"/>
  <path id="Trazado_13397" data-name="Trazado 13397" d="M300.92,90.762h13.233a22.819,22.819,0,0,0-2.707-4.15h-11.56A36.628,36.628,0,0,1,300.92,90.762Z" transform="translate(-271.008 -78.272)" fill="#dc3027"/>
  <path id="Trazado_13398" data-name="Trazado 13398" d="M329.178,220.042H342.99c.065-.7.1-1.413.1-2.132,0-.68-.036-1.352-.094-2.017H329.181C329.226,217.273,329.225,218.663,329.178,220.042Z" transform="translate(-297.479 -195.103)" fill="#e7e7e7"/>
  <path id="Trazado_13399" data-name="Trazado 13399" d="M333.037,176.951a22.722,22.722,0,0,0-.757-4.149H318.154c.142,1.359.236,2.749.281,4.149Z" transform="translate(-287.517 -156.162)" fill="#dc3027"/>
  <path id="Trazado_13400" data-name="Trazado 13400" d="M315.465,306.224h12.707a22.623,22.623,0,0,0,1.644-4.15H316.079C315.928,303.5,315.723,304.894,315.465,306.224Z" transform="translate(-285.087 -272.986)" fill="#e7e7e7"/>
  <path id="Trazado_13401" data-name="Trazado 13401" d="M335.451,263.137a22.664,22.664,0,0,0,.781-4.149H321.989c-.049,1.4-.145,2.791-.29,4.149Z" transform="translate(-290.721 -234.048)" fill="#dc3027"/>
  <path id="Trazado_13402" data-name="Trazado 13402" d="M297.246,392.41a22.939,22.939,0,0,0,4.528-4.149h-10.7a21.19,21.19,0,0,1-1.783,4.149Z" transform="translate(-261.433 -350.873)" fill="#e7e7e7"/>
  <g id="Grupo_2948" data-name="Grupo 2948" transform="translate(21.842 33.238)">
    <path id="Trazado_13403" data-name="Trazado 13403" d="M303.625,349.316h11.1a22.843,22.843,0,0,0,2.744-4.15h-12.8A36.094,36.094,0,0,1,303.625,349.316Z" transform="translate(-296.229 -345.167)" fill="#dc3027"/>
    <path id="Trazado_13404" data-name="Trazado 13404" d="M226.956,473.462l-.138-.005Z" transform="translate(-226.818 -461.103)" fill="#dc3027"/>
    <path id="Trazado_13405" data-name="Trazado 13405" d="M236.837,435.435a22.7,22.7,0,0,0,13-4.075h-8.254C240.123,433.884,239.156,435.435,236.837,435.435Z" transform="translate(-235.872 -423.06)" fill="#dc3027"/>
  </g>
  <path id="Trazado_13406" data-name="Trazado 13406" d="M229.081,473.525c-.277,0-.552-.006-.826-.016C228.532,473.518,228.808,473.525,229.081,473.525Z" transform="translate(-206.275 -427.912)" fill="#c42126"/>
  <path id="Trazado_13407" data-name="Trazado 13407" d="M77.124,43.525H58.21a22.924,22.924,0,0,0-4.463,4.149H78.874A21.68,21.68,0,0,0,77.124,43.525Z" transform="translate(-48.572 -39.334)" fill="#f3f4f5"/>
  <path id="Trazado_13408" data-name="Trazado 13408" d="M100.092,4.58h18.914c-1.341-2.358-3.046-3.89-5.115-4.15h-1.965A22.678,22.678,0,0,0,100.092,4.58Z" transform="translate(-90.454 -0.389)" fill="#e73625"/>
  <path id="Trazado_13409" data-name="Trazado 13409" d="M8.835,133.859H39.922c-.148-1.426-.349-2.817-.6-4.149H10.453A22.653,22.653,0,0,0,8.835,133.859Z" transform="translate(-7.984 -117.219)" fill="#f3f4f5"/>
  <path id="Trazado_13410" data-name="Trazado 13410" d="M28.344,86.609a22.836,22.836,0,0,0-2.707,4.15H54.5a36.572,36.572,0,0,0-1.034-4.15Z" transform="translate(-23.168 -78.269)" fill="#e73625"/>
  <path id="Trazado_13411" data-name="Trazado 13411" d="M0,217.913c0,.719.037,1.43.1,2.132H32.219c.048-1.379.048-2.769,0-4.149H.1C.038,216.561,0,217.233,0,217.913Z" transform="translate(-0.002 -195.106)" fill="#f3f4f5"/>
  <path id="Trazado_13412" data-name="Trazado 13412" d="M.978,176.951H33.1c-.046-1.4-.14-2.79-.281-4.149H1.734A22.687,22.687,0,0,0,.978,176.951Z" transform="translate(-0.884 -156.162)" fill="#e73625"/>
  <path id="Trazado_13413" data-name="Trazado 13413" d="M40.218,302.072H9.175a22.641,22.641,0,0,0,1.644,4.149H39.6C39.862,304.891,40.067,303.5,40.218,302.072Z" transform="translate(-8.292 -272.983)" fill="#f3f4f5"/>
  <path id="Trazado_13414" data-name="Trazado 13414" d="M1.849,263.137H32.892c.144-1.358.241-2.748.29-4.149H1.068A22.693,22.693,0,0,0,1.849,263.137Z" transform="translate(-0.965 -234.048)" fill="#e73625"/>
  <path id="Trazado_13415" data-name="Trazado 13415" d="M59.281,392.41H77.964a21.186,21.186,0,0,0,1.783-4.149H54.753A22.93,22.93,0,0,0,59.281,392.41Z" transform="translate(-49.481 -350.873)" fill="#f3f4f5"/>
  <g id="Grupo_2949" data-name="Grupo 2949" transform="translate(2.528 33.238)">
    <path id="Trazado_13416" data-name="Trazado 13416" d="M26.254,345.166A22.846,22.846,0,0,0,29,349.315H53.992a36.175,36.175,0,0,0,1.046-4.149Z" transform="translate(-26.254 -345.166)" fill="#e73625"/>
    <path id="Trazado_13417" data-name="Trazado 13417" d="M113.832,435.413l.138,0c.274.01.55.016.826.016,2.319,0,4.211-1.551,5.676-4.075h-18.68A22.686,22.686,0,0,0,113.832,435.413Z" transform="translate(-94.519 -423.059)" fill="#e73625"/>
  </g>
  <path id="Trazado_13418" data-name="Trazado 13418" d="M23.246.123A22.8,22.8,0,0,0,1.008,20.863H23.246V.123Z" transform="translate(-0.911 -0.111)" fill="#283991"/>
  <g id="Grupo_2950" data-name="Grupo 2950" transform="translate(0.767 1.581)">
    <path id="Trazado_13419" data-name="Trazado 13419" d="M33.564,134.187l.347,1.07h1.126l-.911.662.348,1.071-.91-.662-.91.662L33,135.918l-.91-.662h1.126Z" transform="translate(-29.768 -122.846)" fill="#efefef"/>
    <path id="Trazado_13420" data-name="Trazado 13420" d="M33.564,173.438l.347,1.071h1.126l-.911.662.348,1.071-.91-.662-.91.662L33,175.17l-.91-.662h1.126Z" transform="translate(-29.768 -158.317)" fill="#efefef"/>
    <path id="Trazado_13421" data-name="Trazado 13421" d="M72.819,75.3l.348,1.07h1.125l-.91.662.348,1.07-.91-.661-.91.661.348-1.07-.911-.662h1.126Z" transform="translate(-65.242 -69.626)" fill="#efefef"/>
    <path id="Trazado_13422" data-name="Trazado 13422" d="M72.819,114.554l.348,1.07h1.125l-.91.661.348,1.071-.91-.661-.91.661.348-1.071-.911-.661h1.126Z" transform="translate(-65.242 -105.103)" fill="#efefef"/>
    <path id="Trazado_13423" data-name="Trazado 13423" d="M72.819,153.812l.348,1.071h1.125l-.91.661.348,1.071-.91-.662-.91.662.348-1.071-.911-.661h1.126Z" transform="translate(-65.242 -140.581)" fill="#efefef"/>
    <path id="Trazado_13424" data-name="Trazado 13424" d="M8.9,165.925l-.348-1.071.91-.661H8.334l-.025-.078c-.124.382-.235.769-.338,1.16l.016-.012Z" transform="translate(-7.971 -149.892)" fill="#efefef"/>
    <path id="Trazado_13425" data-name="Trazado 13425" d="M37.2,97.728l.91-.662.91.662-.348-1.071L39.58,96H38.454l-.348-1.07L37.759,96h-.415c-.077.117-.152.234-.226.353l.426.309Z" transform="translate(-34.311 -87.365)" fill="#efefef"/>
    <path id="Trazado_13426" data-name="Trazado 13426" d="M78.1,48.224l.91.661-.348-1.07.91-.662h-.65q-.828.619-1.6,1.31l-.137.421Z" transform="translate(-70.521 -44.193)" fill="#efefef"/>
    <path id="Trazado_13427" data-name="Trazado 13427" d="M116.452,27.907l.91-.662.91.662-.348-1.071.91-.661H117.71l-.047-.144c-.381.195-.759.4-1.128.613l.264.192Z" transform="translate(-106.006 -25.105)" fill="#efefef"/>
    <path id="Trazado_13428" data-name="Trazado 13428" d="M112.078,55.671l.348,1.07h1.125l-.91.662.348,1.071-.91-.662-.91.662.348-1.071-.911-.662h1.126Z" transform="translate(-100.721 -51.891)" fill="#efefef"/>
    <path id="Trazado_13429" data-name="Trazado 13429" d="M112.078,94.929l.348,1.07h1.125l-.91.662.348,1.071-.91-.662-.91.662.348-1.071L110.6,96h1.126Z" transform="translate(-100.721 -87.368)" fill="#efefef"/>
    <path id="Trazado_13430" data-name="Trazado 13430" d="M112.078,134.187l.348,1.07h1.125l-.91.662.348,1.071-.91-.662-.91.662.348-1.071-.911-.662h1.126Z" transform="translate(-100.721 -122.846)" fill="#efefef"/>
    <path id="Trazado_13431" data-name="Trazado 13431" d="M112.078,173.438l.348,1.071h1.125l-.91.662.348,1.071-.91-.662-.91.662.348-1.071-.911-.662h1.126Z" transform="translate(-100.721 -158.317)" fill="#efefef"/>
    <path id="Trazado_13432" data-name="Trazado 13432" d="M151.336,36.038l.348,1.07h1.125l-.91.662.347,1.07-.91-.661-.911.661.348-1.07-.911-.662h1.126Z" transform="translate(-136.198 -34.148)" fill="#efefef"/>
    <path id="Trazado_13433" data-name="Trazado 13433" d="M151.336,75.3l.348,1.07h1.125l-.91.662.347,1.07-.91-.661-.911.661.348-1.07-.911-.662h1.126Z" transform="translate(-136.198 -69.626)" fill="#efefef"/>
    <path id="Trazado_13434" data-name="Trazado 13434" d="M151.336,114.554l.348,1.07h1.125l-.91.661.347,1.071-.91-.661-.911.661.348-1.071-.911-.661h1.126Z" transform="translate(-136.198 -105.103)" fill="#efefef"/>
    <path id="Trazado_13435" data-name="Trazado 13435" d="M151.336,153.812l.348,1.071h1.125l-.91.661.347,1.071-.91-.662-.911.662.348-1.071-.911-.661h1.126Z" transform="translate(-136.198 -140.581)" fill="#efefef"/>
    <path id="Trazado_13436" data-name="Trazado 13436" d="M190.594,16.413l.348,1.07h1.125l-.91.661.348,1.071-.91-.662-.911.662.348-1.071-.911-.661h1.125Z" transform="translate(-171.676 -16.413)" fill="#efefef"/>
    <path id="Trazado_13437" data-name="Trazado 13437" d="M190.594,55.671l.348,1.07h1.125l-.91.662.348,1.071-.91-.662-.911.662.348-1.071-.911-.662h1.125Z" transform="translate(-171.676 -51.891)" fill="#efefef"/>
    <path id="Trazado_13438" data-name="Trazado 13438" d="M190.594,94.929l.348,1.07h1.125l-.91.662.348,1.071-.91-.662-.911.662.348-1.071L189.12,96h1.125Z" transform="translate(-171.676 -87.368)" fill="#efefef"/>
    <path id="Trazado_13439" data-name="Trazado 13439" d="M190.594,134.187l.348,1.07h1.125l-.91.662.348,1.071-.91-.662-.911.662.348-1.071-.911-.662h1.125Z" transform="translate(-171.676 -122.846)" fill="#efefef"/>
    <path id="Trazado_13440" data-name="Trazado 13440" d="M190.594,173.438l.348,1.071h1.125l-.91.662.348,1.071-.91-.662-.911.662.348-1.071-.911-.662h1.125Z" transform="translate(-171.676 -158.317)" fill="#efefef"/>
  </g>
</svg>
