<svg id="Bookepping_Blue" data-name="Bookepping Blue" xmlns="http://www.w3.org/2000/svg" xmlns:xlink="http://www.w3.org/1999/xlink" width="500" height="266" viewBox="0 0 500 266">
  <defs>
    <filter id="Bookepping" x="151" y="175" width="203" height="55" filterUnits="userSpaceOnUse">
      <feOffset dy="3" input="SourceAlpha"/>
      <feGaussianBlur stdDeviation="3" result="blur"/>
      <feFlood flood-opacity="0.161"/>
      <feComposite operator="in" in2="blur"/>
      <feComposite in="SourceGraphic"/>
    </filter>
  </defs>
  <rect id="Rectángulo_203" data-name="Rectángulo 203" width="500" height="266" rx="24" fill="#225eac" opacity="0.78"/>
  <g transform="matrix(1, 0, 0, 1, 0, 0)" filter="url(#Bookepping)">
    <text id="Bookepping-2" data-name="Bookepping" transform="translate(160 210)" fill="#fff" font-size="30" font-family="Montserrat-SemiBold, Montserrat" font-weight="600"><tspan x="0" y="0">Bookepping</tspan></text>
  </g>
  <g id="tax_3_" data-name="tax (3)" transform="translate(217.311 52.477)">
    <path id="Trazado_1566" data-name="Trazado 1566" d="M69.624,17.076V11.717H66.944V6.359H64.265V1H17.378A9.389,9.389,0,0,0,8,10.378v64.3a9.389,9.389,0,0,0,9.378,9.378H72.3V17.076ZM64.265,9.038v2.679H17.378a1.34,1.34,0,0,1,0-2.679ZM17.378,3.679H61.586V6.359H17.378a4.019,4.019,0,0,0,0,8.038H66.944v2.679H17.378a6.7,6.7,0,0,1,0-13.4Zm52.246,77.7H17.378a6.706,6.706,0,0,1-6.7-6.7V16.935a9.351,9.351,0,0,0,6.7,2.82H69.624Z" transform="translate(-8 -1)" fill="#fff"/>
    <path id="Trazado_1567" data-name="Trazado 1567" d="M0,0H22.735V2.679H0Z" transform="translate(23.157 67.372) rotate(-45)" fill="#fff"/>
    <path id="Trazado_1568" data-name="Trazado 1568" d="M29.019,47.038A4.019,4.019,0,1,0,25,43.019,4.024,4.024,0,0,0,29.019,47.038Zm0-5.359a1.34,1.34,0,1,1-1.34,1.34A1.341,1.341,0,0,1,29.019,41.679Z" transform="translate(-2.226 11.907)" fill="#fff"/>
    <path id="Trazado_1569" data-name="Trazado 1569" d="M37.019,47a4.019,4.019,0,1,0,4.019,4.019A4.024,4.024,0,0,0,37.019,47Zm0,5.359a1.34,1.34,0,1,1,1.34-1.34A1.341,1.341,0,0,1,37.019,52.359Z" transform="translate(0.491 14.624)" fill="#fff"/>
    <path id="Trazado_1570" data-name="Trazado 1570" d="M22.7,64.472H52.17a6.706,6.706,0,0,0,6.7-6.7V41.7a6.706,6.706,0,0,0-6.7-6.7H22.7A6.706,6.706,0,0,0,16,41.7V57.774A6.706,6.706,0,0,0,22.7,64.472ZM18.679,41.7A4.024,4.024,0,0,1,22.7,37.679H52.17A4.024,4.024,0,0,1,56.189,41.7V57.774a4.024,4.024,0,0,1-4.019,4.019H22.7a4.024,4.024,0,0,1-4.019-4.019Z" transform="translate(-5.283 10.548)" fill="#fff"/>
    <path id="Trazado_1571" data-name="Trazado 1571" d="M42.679,32.843l2.679-3.573,2.679,3.573v2.233h2.679V31.95l-3.684-4.912,3.684-4.912V19H48.038v2.233l-2.679,3.573-2.679-3.573V19H40v3.125l3.684,4.912L40,31.95v3.125h2.679Z" transform="translate(2.869 5.114)" fill="#fff"/>
    <path id="Trazado_1572" data-name="Trazado 1572" d="M30.679,32.4h5.359v2.679h2.679V31.057L35.744,19H30.973L28.04,30.733,28,35.076h2.679Zm2.973-10.717,2.009,8.038H31.056l2.009-8.038Z" transform="translate(-1.207 5.114)" fill="#fff"/>
    <path id="Trazado_1573" data-name="Trazado 1573" d="M21.359,35.076h2.679v-13.4H29.4V19H16v2.679h5.359Z" transform="translate(-5.283 5.114)" fill="#fff"/>
  </g>
</svg>
