<svg xmlns="http://www.w3.org/2000/svg" width="77" height="77" viewBox="0 0 77 77">
  <g id="Twitter" transform="translate(0.358 0.357)">
    <path id="twitter_1_" data-name="twitter (1)" d="M43.014,52.137a18.386,18.386,0,0,1-5.081,1.393,8.769,8.769,0,0,0,3.879-4.874,17.623,17.623,0,0,1-5.592,2.135,8.818,8.818,0,0,0-15.254,6.03,9.08,9.08,0,0,0,.2,2.011A24.96,24.96,0,0,1,2.995,49.608,8.82,8.82,0,0,0,5.7,61.393a8.708,8.708,0,0,1-3.984-1.086v.1a8.859,8.859,0,0,0,7.065,8.665,8.8,8.8,0,0,1-2.312.29A7.8,7.8,0,0,1,4.8,69.208a8.9,8.9,0,0,0,8.24,6.143A17.719,17.719,0,0,1,2.11,79.112,16.514,16.514,0,0,1,0,78.991a24.826,24.826,0,0,0,13.528,3.957c16.227,0,25.1-13.442,25.1-25.093,0-.39-.013-.766-.032-1.14A17.592,17.592,0,0,0,43.014,52.137Z" transform="translate(15.673 -28.146)" fill="#fff"/>
    <g id="Elipse_16" data-name="Elipse 16" transform="translate(-0.358 -0.358)" fill="none" stroke="#fff" stroke-width="1">
      <circle cx="38.5" cy="38.5" r="38.5" stroke="none"/>
      <circle cx="38.5" cy="38.5" r="38" fill="none"/>
    </g>
  </g>
</svg>
