<svg id="Password_Icon" data-name="Password Icon" xmlns="http://www.w3.org/2000/svg" width="11.773" height="15.952" viewBox="0 0 11.773 15.952">
  <g id="if_lock_622405">
    <g id="Grupo_3" data-name="Grupo 3">
      <path id="Trazado_4" data-name="Trazado 4" d="M11.162,6.894h-.993V4.527a4.282,4.282,0,1,0-8.564,0V6.894H.622A.617.617,0,0,0,0,7.5v7.15a1.547,1.547,0,0,0,1.547,1.54h8.691a1.538,1.538,0,0,0,1.536-1.54V7.5A.607.607,0,0,0,11.162,6.894ZM2.836,4.53a3.051,3.051,0,1,1,6.1,0V6.894h-6.1Zm7.706,10.124a.306.306,0,0,1-.3.309H1.547a.315.315,0,0,1-.315-.309V8.125h9.31Z" transform="translate(0 -0.242)" fill="#525252"/>
      <path id="Trazado_5" data-name="Trazado 5" d="M565.816,1044.29a.817.817,0,0,0,.817-.818v-2.943a.817.817,0,1,0-1.633,0v2.943A.817.817,0,0,0,565.816,1044.29Z" transform="translate(-559.93 -1030.888)" fill="#525252"/>
    </g>
  </g>
</svg>
