<svg xmlns="http://www.w3.org/2000/svg" width="14.057" height="15.787" viewBox="0 0 14.057 15.787">
  <g id="User_Icon" data-name="User Icon" transform="translate(0.75 0.75)">
    <g id="Grupo_9884" data-name="Grupo 9884" transform="translate(2.511)">
      <g id="Grupo_9883" data-name="Grupo 9883">
        <path id="Trazado_15996" data-name="Trazado 15996" d="M124.767,0a3.767,3.767,0,1,0,3.767,3.767A3.771,3.771,0,0,0,124.767,0Z" transform="translate(-121)" fill="none" stroke="#525252" stroke-width="1.5"/>
      </g>
    </g>
    <g id="Grupo_9886" data-name="Grupo 9886" transform="translate(0 8.371)">
      <g id="Grupo_9885" data-name="Grupo 9885">
        <path id="Trazado_15997" data-name="Trazado 15997" d="M41.966,301.624A5.37,5.37,0,0,0,38.116,300H36.441a5.37,5.37,0,0,0-3.85,1.624A5.49,5.49,0,0,0,31,305.5a.419.419,0,0,0,.419.419h11.72a.419.419,0,0,0,.419-.419A5.49,5.49,0,0,0,41.966,301.624Z" transform="translate(-31 -300)" fill="none" stroke="#525252" stroke-width="1.5"/>
      </g>
    </g>
  </g>
</svg>
