<svg id="Business_Tax_Preparation_Blue" data-name="Business Tax Preparation Blue" xmlns="http://www.w3.org/2000/svg" xmlns:xlink="http://www.w3.org/1999/xlink" width="500" height="266" viewBox="0 0 500 266">
  <defs>
    <filter id="Business_tax_preparation" x="143" y="156" width="214" height="92" filterUnits="userSpaceOnUse">
      <feOffset dy="3" input="SourceAlpha"/>
      <feGaussianBlur stdDeviation="3" result="blur"/>
      <feFlood flood-opacity="0.161"/>
      <feComposite operator="in" in2="blur"/>
      <feComposite in="SourceGraphic"/>
    </filter>
  </defs>
  <rect id="Rectángulo_204" data-name="Rectángulo 204" width="500" height="266" rx="24" fill="#225eac" opacity="0.78"/>
  <g transform="matrix(1, 0, 0, 1, 0, 0)" filter="url(#Business_tax_preparation)">
    <text id="Business_tax_preparation-2" data-name="Business tax 
preparation" transform="translate(250 191)" fill="#fff" font-size="30" font-family="Montserrat-SemiBold, Montserrat" font-weight="600"><tspan x="-97.965" y="0">Business tax </tspan><tspan x="-90.03" y="37">preparation</tspan></text>
  </g>
  <g id="team-leader" transform="translate(214.239 52.477)">
    <path id="Trazado_1578" data-name="Trazado 1578" d="M47.763,68.382a8.382,8.382,0,1,0-8.382,8.382A8.391,8.391,0,0,0,47.763,68.382Zm-8.382,4.191a4.191,4.191,0,1,1,4.191-4.191A4.2,4.2,0,0,1,39.382,72.572Z" transform="translate(-26.67 -51.618)" fill="#fff"/>
    <path id="Trazado_1579" data-name="Trazado 1579" d="M377.763,68.382a8.382,8.382,0,1,0-8.382,8.382A8.391,8.391,0,0,0,377.763,68.382Zm-8.382,4.191a4.191,4.191,0,1,1,4.191-4.191A4.2,4.2,0,0,1,369.382,72.572Z" transform="translate(-310.571 -51.618)" fill="#fff"/>
    <path id="Trazado_1580" data-name="Trazado 1580" d="M58.811,154.191a12.551,12.551,0,0,0-9.647,4.52,14.666,14.666,0,0,0-26.8,0,12.551,12.551,0,0,0-9.647-4.52A12.685,12.685,0,0,0,0,166.763V177.24a2.1,2.1,0,0,0,2.1,2.1H4.387L6.3,198.679a2.1,2.1,0,0,0,2.085,1.89H16.9a2.1,2.1,0,0,0,2.085-1.89L20.9,179.336h7l1.588,19.31a2.1,2.1,0,0,0,2.088,1.924h8.382a2.1,2.1,0,0,0,2.088-1.924l1.588-19.31h7l1.909,19.344a2.1,2.1,0,0,0,2.085,1.89h8.521a2.1,2.1,0,0,0,2.085-1.89l1.909-19.344h2.292a2.1,2.1,0,0,0,2.1-2.1V166.763A12.686,12.686,0,0,0,58.811,154.191ZM19,175.145a2.1,2.1,0,0,0-2.085,1.89L15,196.378H10.28L8.371,177.034a2.1,2.1,0,0,0-2.085-1.89h-2.1v-8.382a8.452,8.452,0,0,1,16.9,0v8.382Zm22.7,0a2.1,2.1,0,0,0-2.088,1.924l-1.588,19.31H33.5l-1.588-19.31a2.1,2.1,0,0,0-2.088-1.924h-4.54V164.668A10.5,10.5,0,0,1,33.666,154.4v10.266a2.1,2.1,0,0,0,4.191,0V154.4a10.5,10.5,0,0,1,8.382,10.266v10.477Zm25.634,0h-2.1a2.1,2.1,0,0,0-2.085,1.89l-1.909,19.344H56.519L54.61,177.034a2.1,2.1,0,0,0-2.085-1.89h-2.1v-8.382a8.452,8.452,0,0,1,16.9,0Z" transform="translate(0 -129.046)" fill="#fff"/>
    <path id="Trazado_1581" data-name="Trazado 1581" d="M201.954,10.477a10.477,10.477,0,1,0-10.477,10.477A10.489,10.489,0,0,0,201.954,10.477Zm-10.477,6.286a6.286,6.286,0,1,1,6.286-6.286A6.293,6.293,0,0,1,191.477,16.763Z" transform="translate(-155.716)" fill="#fff"/>
  </g>
</svg>
