<svg id="Phone_big_2_Icon" data-name="Phone big 2 Icon" xmlns="http://www.w3.org/2000/svg" width="84.65" height="84.645" viewBox="0 0 84.65 84.645">
  <g id="_003---Call" data-name="003---Call" transform="translate(0)">
    <path id="Shape" d="M36.052,49.568c-8.079-8.079-9.9-16.158-10.315-19.4a2.9,2.9,0,0,1,.833-2.428l6.538-6.535A2.919,2.919,0,0,0,33.52,17.6L23.11,1.432A2.919,2.919,0,0,0,19.329.368L2.617,8.239a2.9,2.9,0,0,0-1.605,2.9c.876,8.319,4.5,28.768,24.6,48.865S66.152,83.726,74.475,84.6A2.9,2.9,0,0,0,77.375,83l7.871-16.712a2.919,2.919,0,0,0-1.058-3.775L68.023,52.1a2.919,2.919,0,0,0-3.612.409l-6.535,6.538a2.9,2.9,0,0,1-2.428.833C52.21,59.471,44.131,57.647,36.052,49.568Z" transform="translate(-0.997 0.027)" fill="#d1b37f"/>
    <path id="Shape-2" data-name="Shape" d="M55.729,40.647a2.919,2.919,0,0,1-2.919-2.919A21.916,21.916,0,0,0,30.919,15.838a2.919,2.919,0,1,1,0-5.838A27.759,27.759,0,0,1,58.647,37.729,2.919,2.919,0,0,1,55.729,40.647Z" transform="translate(11.409 4.594)" fill="#d1b37f"/>
    <path id="Shape-3" data-name="Shape" d="M70.323,45.241A2.919,2.919,0,0,1,67.4,42.323,36.526,36.526,0,0,0,30.919,5.838a2.919,2.919,0,0,1,0-5.838A42.369,42.369,0,0,1,73.241,42.323a2.919,2.919,0,0,1-2.919,2.919Z" transform="translate(11.409)" fill="#d1b37f"/>
  </g>
</svg>
