<svg xmlns="http://www.w3.org/2000/svg" width="13.792" height="21.752" viewBox="0 0 13.792 21.752">
  <path id="ATTACH_A_FILE_icon_CONTACT_US" data-name="ATTACH A FILE icon CONTACT US" d="M12.077,22.991a6.4,6.4,0,0,1-5.056-2.022c-2.306-2.609-1.82-6.735-1.79-6.907V6.053c.02-1.658.779-4.8,3.812-4.8s3.792,3.145,3.792,4.8v8.09a.758.758,0,0,1-1.517,0V6.053c0-.131,0-3.286-2.275-3.286S6.768,5.922,6.768,6.053v8.09c0,.131-.425,3.731,1.426,5.815a4.915,4.915,0,0,0,3.883,1.517,4.915,4.915,0,0,0,3.883-1.517c1.851-2.083,1.436-5.683,1.436-5.724V2.008a.758.758,0,0,1,1.517,0V14.143c0,.081.506,4.207-1.8,6.816a6.4,6.4,0,0,1-5.036,2.033Z" transform="translate(-5.168 -1.25)"/>
</svg>
