<svg xmlns="http://www.w3.org/2000/svg" width="79" height="79" viewBox="0 0 79 79">
  <g id="Schedule_Icon_CONTACT_US" data-name="Schedule Icon CONTACT US" transform="translate(-0.973 -0.973)">
    <path id="Trazado_13451" data-name="Trazado 13451" d="M32.967,53.934A19.967,19.967,0,1,1,52.934,33.967,19.967,19.967,0,0,1,32.967,53.934Zm0-34.942A14.975,14.975,0,1,0,47.942,33.967,14.975,14.975,0,0,0,32.967,18.992Z" transform="translate(19.66 21.156)" fill="#d1b37f"/>
    <path id="Trazado_13452" data-name="Trazado 13452" d="M26.464,35.471,20,29.007V18h4.992v8.96l4.992,4.992Z" transform="translate(30.131 27.139)" fill="#d1b37f"/>
    <path id="Trazado_13453" data-name="Trazado 13453" d="M63.9,11.983a4.992,4.992,0,0,0-4.992-4.992H48.925V2H43.934V6.992H23.967V2H18.975V6.992H8.992A4.992,4.992,0,0,0,4,11.983V61.9a4.992,4.992,0,0,0,4.992,4.992h9.983V61.9H8.992V11.983h9.983v4.992h4.992V11.983H43.934v4.992h4.992V11.983h9.983V26.959H63.9Z" transform="translate(6.197 3.205)" fill="#d1b37f"/>
    <rect id="_Transparent_Rectangle_" data-name="&lt;Transparent Rectangle&gt;" width="79" height="79" transform="translate(0.973 0.973)" fill="none"/>
  </g>
</svg>
