<svg xmlns="http://www.w3.org/2000/svg" width="41" height="42" viewBox="0 0 41 42">
  <g id="Twitter" transform="translate(-0.496 -0.073)">
    <path id="twitter_1_" data-name="twitter (1)" d="M23.07,50.219a9.861,9.861,0,0,1-2.725.747,4.7,4.7,0,0,0,2.081-2.614,9.452,9.452,0,0,1-3,1.145,4.729,4.729,0,0,0-8.181,3.234,4.87,4.87,0,0,0,.11,1.079,13.387,13.387,0,0,1-9.749-4.947A4.731,4.731,0,0,0,3.06,55.183,4.671,4.671,0,0,1,.923,54.6v.052A4.751,4.751,0,0,0,4.712,59.3a4.721,4.721,0,0,1-1.24.156,4.182,4.182,0,0,1-.9-.081A4.775,4.775,0,0,0,7,62.67a9.5,9.5,0,0,1-5.864,2.017A8.857,8.857,0,0,1,0,64.622a13.315,13.315,0,0,0,7.256,2.122A13.369,13.369,0,0,0,20.717,53.286c0-.209-.007-.411-.017-.611A9.435,9.435,0,0,0,23.07,50.219Z" transform="translate(8.668 -37.113)" fill="#fff"/>
    <g id="Elipse_16" data-name="Elipse 16" transform="translate(0.496 0.073)" fill="none" stroke="#fff" stroke-width="1">
      <ellipse cx="20.5" cy="21" rx="20.5" ry="21" stroke="none"/>
      <ellipse cx="20.5" cy="21" rx="20" ry="20.5" fill="none"/>
    </g>
  </g>
</svg>
