<svg id="Visibility_Icon" data-name="Visibility Icon" xmlns="http://www.w3.org/2000/svg" width="52.24" height="52.24" viewBox="0 0 52.24 52.24">
  <path id="Trazado_10644" data-name="Trazado 10644" d="M0,0H52.24V52.24H0Z" fill="none"/>
  <path id="Trazado_10645" data-name="Trazado 10645" d="M24.943,8.353a21.266,21.266,0,0,1,19.2,11.972,21.379,21.379,0,0,1-38.4,0,21.266,21.266,0,0,1,19.2-11.972m0-4.353A25.743,25.743,0,0,0,1,20.325a25.722,25.722,0,0,0,47.886,0A25.743,25.743,0,0,0,24.943,4Zm0,10.883A5.442,5.442,0,1,1,19.5,20.325a5.442,5.442,0,0,1,5.442-5.442m0-4.353a9.795,9.795,0,1,0,9.795,9.795,9.795,9.795,0,0,0-9.795-9.795Z" transform="translate(1.177 4.707)" fill="#225eac"/>
</svg>
