<svg xmlns="http://www.w3.org/2000/svg" width="41" height="42" viewBox="0 0 41 42">
  <g id="Facebook" transform="translate(-0.435 -0.073)">
    <g id="facebook-logo_1_" data-name="facebook-logo (1)" transform="translate(15.194 8.707)">
      <path id="Trazado_63" data-name="Trazado 63" d="M133.053,7.856V5.79a4.553,4.553,0,0,1,.043-.72,1.4,1.4,0,0,1,.2-.5.8.8,0,0,1,.495-.342,3.521,3.521,0,0,1,.91-.095h2.066V0h-3.3a5.375,5.375,0,0,0-4.117,1.36,5.729,5.729,0,0,0-1.251,4.008V7.856h-2.473v4.132h2.473V23.975h4.961V11.987h3.3l.436-4.132Z" transform="translate(-125.619)" fill="#fff"/>
    </g>
    <g id="Elipse_16" data-name="Elipse 16" transform="translate(0.435 0.073)" fill="none" stroke="#fff" stroke-width="1">
      <ellipse cx="20.5" cy="21" rx="20.5" ry="21" stroke="none"/>
      <ellipse cx="20.5" cy="21" rx="20" ry="20.5" fill="none"/>
    </g>
  </g>
</svg>
