<svg id="Location_icon" data-name="Location icon" xmlns="http://www.w3.org/2000/svg" width="56.694" height="56.694" viewBox="0 0 56.694 56.694">
  <path id="Trazado_1537" data-name="Trazado 1537" d="M0,0H56.694V56.694H0Z" fill="none"/>
  <path id="Trazado_1538" data-name="Trazado 1538" d="M21.536,2A16.524,16.524,0,0,0,5,18.536c0,12.4,16.536,30.709,16.536,30.709S38.071,30.937,38.071,18.536A16.524,16.524,0,0,0,21.536,2ZM9.724,18.536a11.811,11.811,0,0,1,23.622,0c0,6.8-6.8,16.984-11.811,23.339C16.622,35.567,9.724,25.268,9.724,18.536Z" transform="translate(6.811 2.724)"/>
  <ellipse id="Elipse_62" data-name="Elipse 62" cx="5.906" cy="5.906" rx="5.906" ry="5.906" transform="translate(22.441 15.355)"/>
</svg>
