<svg id="Phone_Icon_contact_us" data-name="Phone Icon contact us" xmlns="http://www.w3.org/2000/svg" width="48.357" height="48.354" viewBox="0 0 48.357 48.354">
  <g id="_003---Call" data-name="003---Call" transform="translate(0)">
    <path id="Shape" d="M21.022,28.341a19.515,19.515,0,0,1-5.893-11.08,1.657,1.657,0,0,1,.476-1.387l3.735-3.733a1.667,1.667,0,0,0,.235-2.063L13.629.844a1.667,1.667,0,0,0-2.16-.608l-9.547,4.5a1.658,1.658,0,0,0-.917,1.657c.5,4.752,2.572,16.434,14.052,27.915s23.16,13.552,27.915,14.052a1.658,1.658,0,0,0,1.657-.917l4.5-9.547a1.667,1.667,0,0,0-.6-2.157L39.286,29.79a1.667,1.667,0,0,0-2.063.233l-3.733,3.735a1.657,1.657,0,0,1-1.387.476A19.515,19.515,0,0,1,21.022,28.341Z" transform="translate(-0.997 -0.01)" fill="#d1b37f"/>
    <path id="Shape-2" data-name="Shape" d="M43.84,27.508a1.667,1.667,0,0,1-1.667-1.667A12.52,12.52,0,0,0,29.667,13.335a1.667,1.667,0,1,1,0-3.335,15.858,15.858,0,0,1,15.84,15.84A1.667,1.667,0,0,1,43.84,27.508Z" transform="translate(-5.487 -1.663)" fill="#d1b37f"/>
    <path id="Shape-3" data-name="Shape" d="M52.177,25.845a1.667,1.667,0,0,1-1.667-1.667A20.866,20.866,0,0,0,29.667,3.335a1.667,1.667,0,1,1,0-3.335A24.2,24.2,0,0,1,53.845,24.177a1.667,1.667,0,0,1-1.667,1.667Z" transform="translate(-5.487)" fill="#d1b37f"/>
  </g>
</svg>
