<svg id="Phone_Icon_Banner_principal" data-name="Phone Icon Banner principal" xmlns="http://www.w3.org/2000/svg" width="37.912" height="37.909" viewBox="0 0 37.912 37.909">
  <g id="_003---Call" data-name="003---Call" transform="translate(0)">
    <path id="Shape" d="M16.7,22.232a15.3,15.3,0,0,1-4.62-8.687,1.3,1.3,0,0,1,.373-1.088l2.928-2.927a1.307,1.307,0,0,0,.184-1.618L10.9.674A1.307,1.307,0,0,0,9.207.2L1.722,3.723A1.3,1.3,0,0,0,1,5.021C1.4,8.747,3.02,17.906,12.02,26.906S30.178,37.531,33.905,37.923a1.3,1.3,0,0,0,1.3-.719l3.525-7.485a1.307,1.307,0,0,0-.474-1.691l-7.239-4.661a1.307,1.307,0,0,0-1.618.183l-2.927,2.928a1.3,1.3,0,0,1-1.088.373A15.3,15.3,0,0,1,16.7,22.232Z" transform="translate(-0.997 -0.021)" fill="#d1b37f"/>
    <path id="Shape-2" data-name="Shape" d="M40.419,23.726a1.307,1.307,0,0,1-1.307-1.307,9.815,9.815,0,0,0-9.8-9.8,1.307,1.307,0,1,1,0-2.614A12.432,12.432,0,0,1,41.726,22.419,1.307,1.307,0,0,1,40.419,23.726Z" transform="translate(-10.35 -3.464)" fill="#d1b37f"/>
    <path id="Shape-3" data-name="Shape" d="M46.955,20.262a1.307,1.307,0,0,1-1.307-1.307,16.359,16.359,0,0,0-16.34-16.34,1.307,1.307,0,0,1,0-2.614A18.976,18.976,0,0,1,48.262,18.955a1.307,1.307,0,0,1-1.307,1.307Z" transform="translate(-10.35)" fill="#d1b37f"/>
  </g>
</svg>
