<svg id="Close_Icon" data-name="Close Icon" xmlns="http://www.w3.org/2000/svg" width="13.438" height="13.438" viewBox="0 0 13.438 13.438">
  <g id="Grupo_12871" data-name="Grupo 12871">
    <path id="Trazado_34120" data-name="Trazado 34120" d="M6.719,0a6.719,6.719,0,1,0,6.719,6.719A6.727,6.727,0,0,0,6.719,0ZM9.437,8.645a.28.28,0,0,1,0,.4l-.4.4a.28.28,0,0,1-.4,0L6.719,7.511,4.793,9.437a.28.28,0,0,1-.4,0l-.4-.4a.28.28,0,0,1,0-.4L5.927,6.719,4,4.793a.28.28,0,0,1,0-.4L4.4,4a.28.28,0,0,1,.4,0L6.719,5.927,8.645,4a.28.28,0,0,1,.4,0l.4.4a.28.28,0,0,1,0,.4L7.511,6.719Z" fill="#5d5d5d"/>
  </g>
</svg>
