<svg id="Email_Icon" data-name="Email Icon" xmlns="http://www.w3.org/2000/svg" width="12.463" height="10.37" viewBox="0 0 12.463 10.37">
  <g id="if_packet_622401">
    <path id="Trazado_6" data-name="Trazado 6" d="M12.463,1.217A1.217,1.217,0,0,0,11.246,0H1.217A1.217,1.217,0,0,0,0,1.217V9.153A1.217,1.217,0,0,0,1.217,10.37H11.246a1.217,1.217,0,0,0,1.217-1.217ZM1.224.973H11.255a.241.241,0,0,1,.242.241v.011L6.412,6.311a.243.243,0,0,1-.344,0L.98,1.224v-.01A.242.242,0,0,1,1.224.973ZM11.255,9.4H1.224A.246.246,0,0,1,.98,9.152V2.6L5.379,7A1.217,1.217,0,0,0,7.1,7l4.4-4.4v6.55A.244.244,0,0,1,11.255,9.4Z" transform="translate(0 0)" fill="#525252"/>
  </g>
</svg>
