<svg id="Visibility_Icon" data-name="Visibility Icon" xmlns="http://www.w3.org/2000/svg" width="20.819" height="20.819" viewBox="0 0 20.819 20.819">
  <path id="Trazado_10644" data-name="Trazado 10644" d="M0,0H20.819V20.819H0Z" fill="none"/>
  <path id="Trazado_10645" data-name="Trazado 10645" d="M10.542,5.735a8.475,8.475,0,0,1,7.651,4.771,8.52,8.52,0,0,1-15.3,0,8.475,8.475,0,0,1,7.651-4.771m0-1.735A10.259,10.259,0,0,0,1,10.506a10.251,10.251,0,0,0,19.084,0A10.259,10.259,0,0,0,10.542,4Zm0,4.337a2.169,2.169,0,1,1-2.169,2.169,2.169,2.169,0,0,1,2.169-2.169m0-1.735a3.9,3.9,0,1,0,3.9,3.9,3.9,3.9,0,0,0-3.9-3.9Z" transform="translate(-0.133 -0.53)" fill="#225eac"/>
</svg>
