<svg id="Icon_menu" data-name="Icon menu" xmlns="http://www.w3.org/2000/svg" width="68.051" height="47.848" viewBox="0 0 68.051 47.848">
  <g id="Grupo_112" data-name="Grupo 112" transform="translate(0 21.266)">
    <g id="Grupo_111" data-name="Grupo 111">
      <path id="Trazado_142" data-name="Trazado 142" d="M65.392,236H2.658a2.658,2.658,0,1,0,0,5.316H65.392a2.658,2.658,0,1,0,0-5.316Z" transform="translate(0 -236)" fill="#fff"/>
    </g>
  </g>
  <g id="Grupo_114" data-name="Grupo 114" transform="translate(0 0)">
    <g id="Grupo_113" data-name="Grupo 113">
      <path id="Trazado_143" data-name="Trazado 143" d="M65.392,76H2.658a2.658,2.658,0,0,0,0,5.316H65.392a2.658,2.658,0,0,0,0-5.316Z" transform="translate(0 -76)" fill="#fff"/>
    </g>
  </g>
  <g id="Grupo_116" data-name="Grupo 116" transform="translate(0 42.532)">
    <g id="Grupo_115" data-name="Grupo 115">
      <path id="Trazado_144" data-name="Trazado 144" d="M65.392,396H2.658a2.658,2.658,0,0,0,0,5.317H65.392a2.658,2.658,0,0,0,0-5.317Z" transform="translate(0 -396)" fill="#fff"/>
    </g>
  </g>
</svg>
