<svg xmlns="http://www.w3.org/2000/svg" width="61" height="61" viewBox="0 0 61 61">
  <g id="Twiiter_icon" data-name="Twiiter icon" transform="translate(-0.372 -0.372)">
    <path id="twitter_1_" data-name="twitter (1)" d="M34.4,51.308a14.7,14.7,0,0,1-4.063,1.114,7.012,7.012,0,0,0,3.1-3.9,14.092,14.092,0,0,1-4.471,1.707,7.051,7.051,0,0,0-12.2,4.822,7.261,7.261,0,0,0,.163,1.608A19.959,19.959,0,0,1,2.395,49.286,7.053,7.053,0,0,0,4.562,58.71a6.963,6.963,0,0,1-3.186-.868v.077a7.084,7.084,0,0,0,5.649,6.929,7.038,7.038,0,0,1-1.849.232,6.235,6.235,0,0,1-1.335-.12,7.119,7.119,0,0,0,6.589,4.912,14.169,14.169,0,0,1-8.743,3.007A13.205,13.205,0,0,1,0,72.782a19.852,19.852,0,0,0,10.817,3.164c12.976,0,20.07-10.749,20.07-20.065,0-.312-.011-.613-.026-.911A14.067,14.067,0,0,0,34.4,51.308Z" transform="translate(12.904 -31.752)" fill="#fff"/>
    <g id="Elipse_16" data-name="Elipse 16" transform="translate(0.372 0.372)" fill="none" stroke="#fff" stroke-width="1">
      <circle cx="30.5" cy="30.5" r="30.5" stroke="none"/>
      <circle cx="30.5" cy="30.5" r="30" fill="none"/>
    </g>
  </g>
</svg>
