<svg id="Phone_big_icon" data-name="Phone big icon" xmlns="http://www.w3.org/2000/svg" width="66.222" height="66.217" viewBox="0 0 66.222 66.217">
  <g id="_003---Call" data-name="003---Call" transform="translate(0)">
    <path id="Shape" d="M28.421,38.79c-6.32-6.32-7.748-12.641-8.069-15.173a2.27,2.27,0,0,1,.652-1.9L26.118,16.6a2.283,2.283,0,0,0,.322-2.826L18.3,1.133A2.283,2.283,0,0,0,15.338.3L2.264,6.458A2.271,2.271,0,0,0,1.008,8.727c.685,6.508,3.522,22.505,19.243,38.227S51.968,65.512,58.479,66.2a2.271,2.271,0,0,0,2.269-1.256L66.9,51.868a2.283,2.283,0,0,0-.828-2.954L53.432,40.773a2.283,2.283,0,0,0-2.826.32l-5.113,5.115a2.27,2.27,0,0,1-1.9.652C41.061,46.537,34.741,45.11,28.421,38.79Z" transform="translate(-0.997 0.008)" fill="#d1b37f"/>
    <path id="Shape-2" data-name="Shape" d="M49.692,33.976a2.283,2.283,0,0,1-2.283-2.283A17.145,17.145,0,0,0,30.283,14.567a2.283,2.283,0,1,1,0-4.567A21.716,21.716,0,0,1,51.976,31.692,2.283,2.283,0,0,1,49.692,33.976Z" transform="translate(2.83 1.417)" fill="#d1b37f"/>
    <path id="Shape-3" data-name="Shape" d="M61.109,35.392a2.283,2.283,0,0,1-2.283-2.283A28.574,28.574,0,0,0,30.283,4.567a2.283,2.283,0,0,1,0-4.567A33.146,33.146,0,0,1,63.393,33.109a2.283,2.283,0,0,1-2.283,2.283Z" transform="translate(2.83)" fill="#d1b37f"/>
  </g>
</svg>
