<svg xmlns="http://www.w3.org/2000/svg" width="25.004" height="39.437" viewBox="0 0 25.004 39.437">
  <path id="ATTACH_A_FILE_contact_us" data-name="ATTACH A FILE contact us" d="M17.693,40.666A11.605,11.605,0,0,1,8.527,37c-4.18-4.73-3.3-12.21-3.245-12.522V9.958C5.318,6.952,6.693,1.25,12.193,1.25s6.875,5.7,6.875,8.708V24.625a1.375,1.375,0,0,1-2.75,0V9.958c0-.238,0-5.958-4.125-5.958S8.068,9.72,8.068,9.958V24.625c0,.238-.77,6.765,2.585,10.542a8.911,8.911,0,0,0,7.04,2.75,8.911,8.911,0,0,0,7.04-2.75c3.355-3.777,2.6-10.3,2.6-10.377V2.625a1.375,1.375,0,0,1,2.75,0v22c0,.147.917,7.627-3.263,12.357a11.605,11.605,0,0,1-9.13,3.685Z" transform="translate(-5.168 -1.25)"/>
</svg>
