<svg xmlns="http://www.w3.org/2000/svg" width="105" height="105" viewBox="0 0 105 105">
  <g id="Schedule_Icon_Contact_US" data-name="Schedule Icon Contact US" transform="translate(-0.5 -0.5)">
    <path id="Trazado_13451" data-name="Trazado 13451" d="M39.216,66.432A26.216,26.216,0,1,1,65.432,40.216,26.216,26.216,0,0,1,39.216,66.432Zm0-45.878A19.662,19.662,0,1,0,58.878,40.216,19.662,19.662,0,0,0,39.216,20.554Z" transform="translate(29.601 31.878)" fill="#d1b37f"/>
    <path id="Trazado_13452" data-name="Trazado 13452" d="M28.487,40.939,20,32.452V18h6.554V29.764l6.554,6.554Z" transform="translate(45.54 40.986)" fill="#d1b37f"/>
    <path id="Trazado_13453" data-name="Trazado 13453" d="M82.648,15.108a6.554,6.554,0,0,0-6.554-6.554H62.986V2H56.432V8.554H30.216V2H23.662V8.554H10.554A6.554,6.554,0,0,0,4,15.108v65.54A6.554,6.554,0,0,0,10.554,87.2H23.662V80.648H10.554V15.108H23.662v6.554h6.554V15.108H56.432v6.554h6.554V15.108H76.094V34.77h6.554Z" transform="translate(9.108 4.554)" fill="#d1b37f"/>
    <rect id="_Transparent_Rectangle_" data-name="&lt;Transparent Rectangle&gt;" width="105" height="105" transform="translate(0.5 0.5)" fill="none"/>
  </g>
</svg>
