<svg id="united-states-of-america" xmlns="http://www.w3.org/2000/svg" width="34.87" height="34.871" viewBox="0 0 34.87 34.871">
  <g id="Grupo_2947" data-name="Grupo 2947" transform="translate(0.072)">
    <rect id="Rectángulo_703" data-name="Rectángulo 703" width="34.715" height="0.001" transform="translate(0.007 19.066)" fill="#c42126"/>
    <rect id="Rectángulo_704" data-name="Rectángulo 704" width="31.097" height="0.001" transform="translate(1.815 9.548)" fill="#c42126"/>
    <rect id="Rectángulo_705" data-name="Rectángulo 705" width="33.569" height="0.001" transform="translate(0.578 12.72)" fill="#c42126"/>
    <path id="Trazado_13392" data-name="Trazado 13392" d="M101.779,431.346h0Z" transform="translate(-94.357 -399.591)" fill="#c42126"/>
    <path id="Trazado_13393" data-name="Trazado 13393" d="M224.008,0c-.342,0-.682.012-1.019.032h2.039C224.691.012,224.351,0,224.008,0Z" transform="translate(-206.645)" fill="#c42126"/>
    <rect id="Rectángulo_706" data-name="Rectángulo 706" width="34.726" height="0.001" transform="translate(0 15.893)" fill="#c42126"/>
  </g>
  <path id="Trazado_13394" data-name="Trazado 13394" d="M290,46.7h8.326a17.524,17.524,0,0,0-3.412-3.172h-6.252A16.574,16.574,0,0,1,290,46.7Z" transform="translate(-267.416 -40.321)" fill="#e7e7e7"/>
  <path id="Trazado_13395" data-name="Trazado 13395" d="M246.729,3.6h6.252A17.339,17.339,0,0,0,243.933.43H243.4C244.978.629,245.7,1.8,246.729,3.6Z" transform="translate(-225.478 -0.398)" fill="#dc3027"/>
  <path id="Trazado_13396" data-name="Trazado 13396" d="M328.755,132.882a17.32,17.32,0,0,0-1.237-3.172H317.94c.194,1.018.347,2.082.461,3.172Z" transform="translate(-294.534 -120.161)" fill="#e7e7e7"/>
  <path id="Trazado_13397" data-name="Trazado 13397" d="M300.676,89.784h10.117a17.445,17.445,0,0,0-2.07-3.172h-8.837A28,28,0,0,1,300.676,89.784Z" transform="translate(-277.809 -80.236)" fill="#dc3027"/>
  <path id="Trazado_13398" data-name="Trazado 13398" d="M329.178,219.065h10.559c.05-.536.078-1.08.078-1.63,0-.52-.027-1.033-.072-1.542H329.181C329.215,216.948,329.214,218.011,329.178,219.065Z" transform="translate(-304.945 -200)" fill="#e7e7e7"/>
  <path id="Trazado_13399" data-name="Trazado 13399" d="M329.531,175.974a17.368,17.368,0,0,0-.578-3.172h-10.8c.108,1.039.18,2.1.215,3.172Z" transform="translate(-294.733 -160.081)" fill="#dc3027"/>
  <path id="Trazado_13400" data-name="Trazado 13400" d="M315.465,305.247h9.715a17.3,17.3,0,0,0,1.257-3.172h-10.5C315.819,303.166,315.662,304.23,315.465,305.247Z" transform="translate(-292.242 -279.837)" fill="#e7e7e7"/>
  <path id="Trazado_13401" data-name="Trazado 13401" d="M332.212,262.16a17.325,17.325,0,0,0,.6-3.172H321.921c-.037,1.071-.111,2.134-.222,3.172Z" transform="translate(-298.017 -239.922)" fill="#dc3027"/>
  <path id="Trazado_13402" data-name="Trazado 13402" d="M295.373,391.433a17.536,17.536,0,0,0,3.462-3.172h-8.18a16.2,16.2,0,0,1-1.363,3.172Z" transform="translate(-267.994 -359.678)" fill="#e7e7e7"/>
  <g id="Grupo_2948" data-name="Grupo 2948" transform="translate(16.697 25.41)">
    <path id="Trazado_13403" data-name="Trazado 13403" d="M303.625,348.339h8.488a17.463,17.463,0,0,0,2.1-3.172h-9.786A27.592,27.592,0,0,1,303.625,348.339Z" transform="translate(-297.971 -345.167)" fill="#dc3027"/>
    <path id="Trazado_13404" data-name="Trazado 13404" d="M226.924,473.461l-.106,0Z" transform="translate(-226.818 -464.013)" fill="#dc3027"/>
    <path id="Trazado_13405" data-name="Trazado 13405" d="M236.837,434.475a17.354,17.354,0,0,0,9.942-3.115h-6.31C239.349,433.29,238.61,434.475,236.837,434.475Z" transform="translate(-236.099 -425.015)" fill="#dc3027"/>
  </g>
  <path id="Trazado_13406" data-name="Trazado 13406" d="M228.887,473.521c-.212,0-.422,0-.632-.012C228.467,473.516,228.677,473.521,228.887,473.521Z" transform="translate(-211.452 -438.651)" fill="#c42126"/>
  <path id="Trazado_13407" data-name="Trazado 13407" d="M71.618,43.525H57.159A17.525,17.525,0,0,0,53.747,46.7H72.956A16.573,16.573,0,0,0,71.618,43.525Z" transform="translate(-49.79 -40.321)" fill="#f3f4f5"/>
  <path id="Trazado_13408" data-name="Trazado 13408" d="M100.092,3.6h14.46c-1.025-1.8-2.328-2.973-3.91-3.173h-1.5A17.337,17.337,0,0,0,100.092,3.6Z" transform="translate(-92.724 -0.398)" fill="#e73625"/>
  <path id="Trazado_13409" data-name="Trazado 13409" d="M8.835,132.882H32.6c-.113-1.09-.266-2.153-.461-3.172H10.072A17.318,17.318,0,0,0,8.835,132.882Z" transform="translate(-8.185 -120.161)" fill="#f3f4f5"/>
  <path id="Trazado_13410" data-name="Trazado 13410" d="M27.706,86.609a17.458,17.458,0,0,0-2.069,3.172H47.705a27.958,27.958,0,0,0-.79-3.172Z" transform="translate(-23.75 -80.233)" fill="#e73625"/>
  <path id="Trazado_13411" data-name="Trazado 13411" d="M0,217.438c0,.549.029,1.093.078,1.63H24.631c.036-1.054.037-2.117,0-3.172H.074C.029,216.4,0,216.918,0,217.438Z" transform="translate(-0.002 -200.002)" fill="#f3f4f5"/>
  <path id="Trazado_13412" data-name="Trazado 13412" d="M.978,175.974H25.537c-.035-1.071-.107-2.133-.215-3.172H1.556A17.344,17.344,0,0,0,.978,175.974Z" transform="translate(-0.906 -160.081)" fill="#e73625"/>
  <path id="Trazado_13413" data-name="Trazado 13413" d="M32.907,302.072H9.175a17.309,17.309,0,0,0,1.257,3.172H32.437C32.635,304.227,32.791,303.164,32.907,302.072Z" transform="translate(-8.5 -279.834)" fill="#f3f4f5"/>
  <path id="Trazado_13414" data-name="Trazado 13414" d="M1.665,262.16H25.4c.11-1.038.184-2.1.222-3.172H1.068A17.348,17.348,0,0,0,1.665,262.16Z" transform="translate(-0.99 -239.922)" fill="#e73625"/>
  <path id="Trazado_13415" data-name="Trazado 13415" d="M58.215,391.433H72.5a16.2,16.2,0,0,0,1.363-3.172H54.753A17.529,17.529,0,0,0,58.215,391.433Z" transform="translate(-50.722 -359.678)" fill="#f3f4f5"/>
  <g id="Grupo_2949" data-name="Grupo 2949" transform="translate(1.933 25.41)">
    <path id="Trazado_13416" data-name="Trazado 13416" d="M26.254,345.166a17.466,17.466,0,0,0,2.1,3.172H47.459a27.656,27.656,0,0,0,.8-3.172Z" transform="translate(-26.254 -345.166)" fill="#e73625"/>
    <path id="Trazado_13417" data-name="Trazado 13417" d="M111,434.458l.106,0c.21.008.42.012.632.012,1.773,0,3.219-1.186,4.339-3.115H101.793A17.343,17.343,0,0,0,111,434.458Z" transform="translate(-96.232 -425.014)" fill="#e73625"/>
  </g>
  <path id="Trazado_13418" data-name="Trazado 13418" d="M18.009.123a17.43,17.43,0,0,0-17,15.855h17V.123Z" transform="translate(-0.934 -0.114)" fill="#283991"/>
  <g id="Grupo_2950" data-name="Grupo 2950" transform="translate(0.587 1.208)">
    <path id="Trazado_13419" data-name="Trazado 13419" d="M33.217,134.187l.266.818h.861l-.7.506.266.818-.7-.506-.7.506.265-.818-.7-.506h.861Z" transform="translate(-30.315 -125.517)" fill="#efefef"/>
    <path id="Trazado_13420" data-name="Trazado 13420" d="M33.217,173.438l.266.818h.861l-.7.506.266.818-.7-.506-.7.506.265-.818-.7-.506h.861Z" transform="translate(-30.315 -161.878)" fill="#efefef"/>
    <path id="Trazado_13421" data-name="Trazado 13421" d="M72.472,75.3l.266.818h.86l-.7.506.266.818-.7-.505-.7.505.266-.818-.7-.506h.861Z" transform="translate(-66.68 -70.961)" fill="#efefef"/>
    <path id="Trazado_13422" data-name="Trazado 13422" d="M72.472,114.554l.266.818h.86l-.7.505.266.818-.7-.505-.7.505.266-.818-.7-.505h.861Z" transform="translate(-66.68 -107.329)" fill="#efefef"/>
    <path id="Trazado_13423" data-name="Trazado 13423" d="M72.472,153.812l.266.818h.86l-.7.505.266.818-.7-.506-.7.506.266-.818-.7-.505h.861Z" transform="translate(-66.68 -143.697)" fill="#efefef"/>
    <path id="Trazado_13424" data-name="Trazado 13424" d="M8.679,165.5l-.266-.818.7-.505h-.86l-.019-.06c-.094.292-.18.588-.258.887l.012-.009Z" transform="translate(-7.971 -153.242)" fill="#efefef"/>
    <path id="Trazado_13425" data-name="Trazado 13425" d="M37.179,97.068l.7-.506.7.506L38.3,96.25l.7-.506H38.14l-.266-.818-.266.818h-.317c-.059.089-.116.179-.173.27l.326.236Z" transform="translate(-34.972 -89.146)" fill="#efefef"/>
    <path id="Trazado_13426" data-name="Trazado 13426" d="M77.883,47.971l.7.505-.266-.818.7-.506h-.5q-.633.473-1.22,1l-.1.322Z" transform="translate(-72.091 -44.89)" fill="#efefef"/>
    <path id="Trazado_13427" data-name="Trazado 13427" d="M116.452,27.465l.7-.506.7.506-.266-.818.7-.505h-.86l-.036-.11c-.292.149-.58.3-.862.469l.2.147Z" transform="translate(-108.466 -25.323)" fill="#efefef"/>
    <path id="Trazado_13428" data-name="Trazado 13428" d="M111.73,55.671l.266.818h.86l-.7.506.266.818-.7-.506-.7.506.266-.818-.7-.506h.86Z" transform="translate(-103.048 -52.781)" fill="#efefef"/>
    <path id="Trazado_13429" data-name="Trazado 13429" d="M111.73,94.929l.266.818h.86l-.7.506.266.818-.7-.506-.7.506.266-.818-.7-.506h.86Z" transform="translate(-103.048 -89.149)" fill="#efefef"/>
    <path id="Trazado_13430" data-name="Trazado 13430" d="M111.73,134.187,112,135h.86l-.7.506.266.818-.7-.506-.7.506.266-.818-.7-.506h.86Z" transform="translate(-103.048 -125.517)" fill="#efefef"/>
    <path id="Trazado_13431" data-name="Trazado 13431" d="M111.73,173.438l.266.818h.86l-.7.506.266.818-.7-.506-.7.506.266-.818-.7-.506h.86Z" transform="translate(-103.048 -161.878)" fill="#efefef"/>
    <path id="Trazado_13432" data-name="Trazado 13432" d="M150.988,36.038l.266.818h.86l-.7.506.265.818-.7-.505-.7.505.266-.818-.7-.506h.861Z" transform="translate(-139.416 -34.593)" fill="#efefef"/>
    <path id="Trazado_13433" data-name="Trazado 13433" d="M150.988,75.3l.266.818h.86l-.7.506.265.818-.7-.505-.7.505.266-.818-.7-.506h.861Z" transform="translate(-139.416 -70.961)" fill="#efefef"/>
    <path id="Trazado_13434" data-name="Trazado 13434" d="M150.988,114.554l.266.818h.86l-.7.505.265.818-.7-.505-.7.505.266-.818-.7-.505h.861Z" transform="translate(-139.416 -107.329)" fill="#efefef"/>
    <path id="Trazado_13435" data-name="Trazado 13435" d="M150.988,153.812l.266.818h.86l-.7.505.265.818-.7-.506-.7.506.266-.818-.7-.505h.861Z" transform="translate(-139.416 -143.697)" fill="#efefef"/>
    <path id="Trazado_13436" data-name="Trazado 13436" d="M190.246,16.413l.266.818h.86l-.7.505.266.818-.7-.506-.7.506.266-.818-.7-.505h.86Z" transform="translate(-175.784 -16.413)" fill="#efefef"/>
    <path id="Trazado_13437" data-name="Trazado 13437" d="M190.246,55.671l.266.818h.86l-.7.506.266.818-.7-.506-.7.506.266-.818-.7-.506h.86Z" transform="translate(-175.784 -52.781)" fill="#efefef"/>
    <path id="Trazado_13438" data-name="Trazado 13438" d="M190.246,94.929l.266.818h.86l-.7.506.266.818-.7-.506-.7.506.266-.818-.7-.506h.86Z" transform="translate(-175.784 -89.149)" fill="#efefef"/>
    <path id="Trazado_13439" data-name="Trazado 13439" d="M190.246,134.187l.266.818h.86l-.7.506.266.818-.7-.506-.7.506.266-.818-.7-.506h.86Z" transform="translate(-175.784 -125.517)" fill="#efefef"/>
    <path id="Trazado_13440" data-name="Trazado 13440" d="M190.246,173.438l.266.818h.86l-.7.506.266.818-.7-.506-.7.506.266-.818-.7-.506h.86Z" transform="translate(-175.784 -161.878)" fill="#efefef"/>
  </g>
</svg>
