<svg xmlns="http://www.w3.org/2000/svg" width="58.178" height="60.522" viewBox="0 0 58.178 60.522">
  <g id="Fax_Icon_contact_us" data-name="Fax Icon contact us" transform="translate(1.936 1.5)">
    <path id="Trazado_13449" data-name="Trazado 13449" d="M19,11H9V46.013H54.017V11h-10" transform="translate(0.725 1.505)" fill="none" stroke="#d1b37f" stroke-miterlimit="10" stroke-width="3"/>
    <rect id="Rectángulo_759" data-name="Rectángulo 759" width="24.884" height="17.671" transform="translate(19.76)" fill="none" stroke="#d1b37f" stroke-miterlimit="10" stroke-width="3"/>
    <rect id="Rectángulo_760" data-name="Rectángulo 760" width="10.098" height="40.031" transform="translate(-0.436 7.573)" fill="none" stroke="#d1b37f" stroke-miterlimit="10" stroke-width="3"/>
    <rect id="Rectángulo_761" data-name="Rectángulo 761" width="5.049" height="5.049" transform="translate(19.76 24.884)" fill="#d1b37f"/>
    <rect id="Rectángulo_762" data-name="Rectángulo 762" width="5.049" height="5.049" transform="translate(29.858 24.884)" fill="#d1b37f"/>
    <rect id="Rectángulo_763" data-name="Rectángulo 763" width="5.049" height="5.049" transform="translate(39.596 24.884)" fill="#d1b37f"/>
    <rect id="Rectángulo_764" data-name="Rectángulo 764" width="5.049" height="5.049" transform="translate(19.76 34.982)" fill="#d1b37f"/>
    <rect id="Rectángulo_765" data-name="Rectángulo 765" width="5.049" height="5.049" transform="translate(29.858 34.982)" fill="#d1b37f"/>
    <rect id="Rectángulo_766" data-name="Rectángulo 766" width="5.049" height="5.049" transform="translate(39.596 34.982)" fill="#d1b37f"/>
    <path id="Trazado_13450" data-name="Trazado 13450" d="M17,25v5a5.017,5.017,0,0,1-5,5h0a5.017,5.017,0,0,1-5-5V25" transform="translate(-2.277 22.518)" fill="none" stroke="#d1b37f" stroke-miterlimit="10" stroke-width="3"/>
  </g>
</svg>
