<svg id="Location_contact_us" data-name="Location contact us" xmlns="http://www.w3.org/2000/svg" width="60.429" height="60.429" viewBox="0 0 60.429 60.429">
  <path id="Trazado_1537" data-name="Trazado 1537" d="M0,0H60.429V60.429H0Z" fill="none"/>
  <path id="Trazado_1538" data-name="Trazado 1538" d="M22.625,2A17.612,17.612,0,0,0,5,19.625C5,32.844,22.625,52.357,22.625,52.357S40.25,32.844,40.25,19.625A17.612,17.612,0,0,0,22.625,2ZM10.036,19.625a12.589,12.589,0,0,1,25.179,0c0,7.251-7.251,18.1-12.589,24.877C17.388,37.779,10.036,26.8,10.036,19.625Z" transform="translate(7.589 3.036)"/>
  <ellipse id="Elipse_62" data-name="Elipse 62" cx="6.295" cy="6.295" rx="6.295" ry="6.295" transform="translate(23.92 16.366)"/>
</svg>
