<svg xmlns="http://www.w3.org/2000/svg" width="99" height="99" viewBox="0 0 99 99">
  <g id="Schedule_Icon_contact_us" data-name="Schedule Icon contact us" transform="translate(-0.973 -0.973)">
    <path id="Trazado_13451" data-name="Trazado 13451" d="M37.954,63.908A24.954,24.954,0,1,1,62.908,38.954,24.954,24.954,0,0,1,37.954,63.908Zm0-43.669A18.715,18.715,0,1,0,56.669,38.954,18.715,18.715,0,0,0,37.954,20.238Z" transform="translate(27.574 29.694)" fill="#d1b37f"/>
    <path id="Trazado_13452" data-name="Trazado 13452" d="M28.079,39.835,20,31.756V18h6.238V29.2l6.238,6.238Z" transform="translate(42.409 38.171)" fill="#d1b37f"/>
    <path id="Trazado_13453" data-name="Trazado 13453" d="M78.862,14.477a6.238,6.238,0,0,0-6.238-6.238H60.146V2H53.908V8.238H28.954V2H22.715V8.238H10.238A6.238,6.238,0,0,0,4,14.477V76.862A6.238,6.238,0,0,0,10.238,83.1H22.715V76.862H10.238V14.477H22.715v6.238h6.238V14.477H53.908v6.238h6.238V14.477H72.623V33.192h6.238Z" transform="translate(8.501 4.263)" fill="#d1b37f"/>
    <rect id="_Transparent_Rectangle_" data-name="&lt;Transparent Rectangle&gt;" width="99" height="99" transform="translate(0.973 0.973)" fill="none"/>
  </g>
</svg>
