<svg id="Close_icon" data-name="Close icon" xmlns="http://www.w3.org/2000/svg" width="26.045" height="26.045" viewBox="0 0 26.045 26.045">
  <g id="Grupo_12871" data-name="Grupo 12871">
    <path id="Trazado_34120" data-name="Trazado 34120" d="M13.023,0A13.023,13.023,0,1,0,26.045,13.023,13.038,13.038,0,0,0,13.023,0ZM18.29,16.755a.542.542,0,0,1,0,.767l-.767.767a.543.543,0,0,1-.767,0l-3.733-3.732L9.29,18.29a.543.543,0,0,1-.767,0l-.767-.767a.542.542,0,0,1,0-.767l3.733-3.733L7.756,9.29a.542.542,0,0,1,0-.767l.767-.767a.543.543,0,0,1,.767,0l3.733,3.733,3.733-3.733a.543.543,0,0,1,.767,0l.767.767a.542.542,0,0,1,0,.767l-3.733,3.733Z" fill="#5d5d5d"/>
  </g>
</svg>
