<svg id="Visibility" xmlns="http://www.w3.org/2000/svg" width="40.349" height="40.349" viewBox="0 0 40.349 40.349">
  <path id="Trazado_10644" data-name="Trazado 10644" d="M0,0H40.349V40.349H0Z" fill="none"/>
  <path id="Trazado_10645" data-name="Trazado 10645" d="M19.493,7.362a16.425,16.425,0,0,1,14.828,9.247,16.513,16.513,0,0,1-29.657,0A16.425,16.425,0,0,1,19.493,7.362m0-3.362A19.884,19.884,0,0,0,1,16.609a19.867,19.867,0,0,0,36.987,0A19.884,19.884,0,0,0,19.493,4Zm0,8.406a4.2,4.2,0,1,1-4.2,4.2,4.2,4.2,0,0,1,4.2-4.2m0-3.362a7.565,7.565,0,1,0,7.565,7.565,7.565,7.565,0,0,0-7.565-7.565Z" transform="translate(0.681 2.725)" fill="#225eac"/>
</svg>
